  0
SECTION
  2
HEADER
  9
$ACADVER
  1
AC1009
  9
$FILLMODE
 70
1
  9
$EXTMIN
 10
0.0000
 20
-28.8793
 30
0.0000
  9
$EXTMAX
 10
132.8000
 20
63.0000
 30
0.0000
  0
ENDSEC
  0
SECTION
  2
TABLES
  0
TABLE
  2
LTYPE
 70
1
  0
LTYPE
  2
CONTINUOUS
 70
64
  3
Solid line
 72
65
 73
0
 40
0
  0
ENDTAB
  0
TABLE
  2
LAYER
 70
255
  0
LAYER
  2
1
 70
64
 62
12
  6
CONTINUOUS
  0
LAYER
  2
16
 70
64
 62
132
  6
CONTINUOUS
  0
LAYER
  2
17
 70
64
 62
110
  6
CONTINUOUS
  0
LAYER
  2
18
 70
64
 62
110
  6
CONTINUOUS
  0
LAYER
  2
19
 70
64
 62
53
  6
CONTINUOUS
  0
LAYER
  2
20
 70
64
 62
53
  6
CONTINUOUS
  0
LAYER
  2
25
 70
64
 62
253
  6
CONTINUOUS
  0
LAYER
  2
26
 70
64
 62
253
  6
CONTINUOUS
  0
LAYER
  2
27
 70
64
 62
253
  6
CONTINUOUS
  0
LAYER
  2
28
 70
64
 62
253
  6
CONTINUOUS
  0
LAYER
  2
40
 70
64
 62
132
  6
CONTINUOUS
  0
LAYER
  2
41
 70
64
 62
12
  6
CONTINUOUS
  0
LAYER
  2
42
 70
64
 62
132
  6
CONTINUOUS
  0
LAYER
  2
43
 70
64
 62
110
  6
CONTINUOUS
  0
LAYER
  2
46
 70
64
 62
140
  6
CONTINUOUS
  0
LAYER
  2
47
 70
64
 62
253
  6
CONTINUOUS
  0
LAYER
  2
48
 70
64
 62
253
  6
CONTINUOUS
  0
LAYER
  2
49
 70
64
 62
253
  6
CONTINUOUS
  0
LAYER
  2
51
 70
64
 62
2
  6
CONTINUOUS
  0
LAYER
  2
52
 70
64
 62
253
  6
CONTINUOUS
  0
LAYER
  2
137
 70
64
 62
253
  6
CONTINUOUS
  0
LAYER
  2
145
 70
64
 62
253
  6
CONTINUOUS
  0
LAYER
  2
146
 70
64
 62
253
  6
CONTINUOUS
  0
LAYER
  2
229
 70
64
 62
253
  6
CONTINUOUS
  0
LAYER
  2
231
 70
64
 62
253
  6
CONTINUOUS
  0
LAYER
  2
232
 70
64
 62
253
  6
CONTINUOUS
  0
LAYER
  2
233
 70
64
 62
253
  6
CONTINUOUS
  0
LAYER
  2
253
 70
64
 62
253
  6
CONTINUOUS
  0
LAYER
  2
255
 70
64
 62
253
  6
CONTINUOUS
  0
ENDTAB
  0
ENDSEC
  0
SECTION
  2
BLOCKS
  0
BLOCK
  8
0
  2
RECT
 70
64
 10
0.0000
 20
0.0000
 30
0.0000
  3
RECT
  0
SOLID
  8
0
 10
-0.5000
 20
-0.5000
 30
0.0000
 11
0.5000
 21
-0.5000
 31
0.0000
 12
-0.5000
 22
0.5000
 32
0.0000
 13
0.5000
 23
0.5000
 33
0.0000
  0
ENDBLK
  8
0
  0
BLOCK
  8
0
  2
PIE
 70
64
 10
0.0000
 20
0.0000
 30
0.0000
  3
PIE
  0
POLYLINE
  8
0
 66
1
 10
0.0000
 20
0.0000
 30
0.0000
 40
0.5000
 41
0.5000
 70
0
  0
VERTEX
  8
0
 10
0.0000
 20
-0.2500
 30
0.0000
 42
1.0000
  0
VERTEX
  8
0
 10
0.0000
 20
0.2500
 30
0.0000
 42
1.0000
  0
VERTEX
  8
0
 10
0.0000
 20
-0.2500
 30
0.0000
  0
SEQEND
  8
0
  0
ENDBLK
  8
0
  0
BLOCK
  8
0
  2
OCTAGONP
 70
64
 10
0.0000
 20
0.0000
 30
0.0000
  3
OCTAGONP
  0
POLYLINE
  8
0
 66
1
 10
0.0000
 20
0.0000
 30
0.0000
 40
0.5000
 41
0.5000
 70
0
  0
VERTEX
  8
0
 10
-0.2500
 20
-0.1036
 30
0.0000
  0
VERTEX
  8
0
 10
-0.2500
 20
0.1036
 30
0.0000
  0
VERTEX
  8
0
 10
-0.1036
 20
0.2500
 30
0.0000
  0
VERTEX
  8
0
 10
0.1036
 20
0.2500
 30
0.0000
  0
VERTEX
  8
0
 10
0.2500
 20
0.1036
 30
0.0000
  0
VERTEX
  8
0
 10
0.2500
 20
-0.1036
 30
0.0000
  0
VERTEX
  8
0
 10
0.1036
 20
-0.2500
 30
0.0000
  0
VERTEX
  8
0
 10
-0.1036
 20
-0.2500
 30
0.0000
  0
VERTEX
  8
0
 10
-0.2500
 20
-0.1036
 30
0.0000
  0
VERTEX
  8
0
 10
-0.2500
 20
0.1036
 30
0.0000
  0
SEQEND
  8
0
  0
ENDBLK
  8
0
  0
BLOCK
  8
0
  2
SQUAREP
 70
64
 10
0.0000
 20
0.0000
 30
0.0000
  3
SQUAREP
  0
SOLID
  8
0
 10
-0.5000
 20
-0.5000
 30
0.0000
 11
0.5000
 21
-0.5000
 31
0.0000
 12
-0.5000
 22
0.5000
 32
0.0000
 13
0.5000
 23
0.5000
 33
0.0000
  0
ENDBLK
  8
0
  0
BLOCK
  8
0
  2
ROUNDP
 70
64
 10
0.0000
 20
0.0000
 30
0.0000
  3
ROUNDP
  0
POLYLINE
  8
0
 66
1
 10
0.0000
 20
0.0000
 30
0.0000
 40
0.5000
 41
0.5000
 70
0
  0
VERTEX
  8
0
 10
0.0000
 20
-0.2500
 30
0.0000
 42
1.0000
  0
VERTEX
  8
0
 10
0.0000
 20
0.2500
 30
0.0000
 42
1.0000
  0
VERTEX
  8
0
 10
0.0000
 20
-0.2500
 30
0.0000
  0
SEQEND
  8
0
  0
ENDBLK
  8
0
  0
BLOCK
  8
0
  2
ANNULUSP
 70
64
 10
0.0000
 20
0.0000
 30
0.0000
  3
ANNULUSP
  0
POLYLINE
  8
0
 66
1
 10
0.0000
 20
0.0000
 30
0.0000
 40
0.5000
 41
0.5000
 70
0
  0
VERTEX
  8
0
 10
0.0000
 20
-0.2500
 30
0.0000
 42
1.0000
  0
VERTEX
  8
0
 10
0.0000
 20
0.2500
 30
0.0000
 42
1.0000
  0
VERTEX
  8
0
 10
0.0000
 20
-0.2500
 30
0.0000
  0
SEQEND
  8
0
  0
ENDBLK
  8
0
  0
BLOCK
  8
0
  2
THERMALP
 70
64
 10
0.0000
 20
0.0000
 30
0.0000
  3
THERMALP
  0
POLYLINE
  8
0
 66
1
 10
0.0000
 20
0.0000
 30
0.0000
 40
0.1000
 41
0.1000
 70
0
  0
VERTEX
  8
0
 10
-0.2379
 20
0.4500
 30
0.0000
  0
VERTEX
  8
0
 10
0.2379
 20
0.4500
 30
0.0000
  0
SEQEND
  8
0
  0
POLYLINE
  8
0
 66
1
 10
0.0000
 20
0.0000
 30
0.0000
 40
0.0500
 41
0.0500
 70
0
  0
VERTEX
  8
0
 10
0.2379
 20
0.4250
 30
0.0000
 42
1.0000
  0
VERTEX
  8
0
 10
0.2379
 20
0.4750
 30
0.0000
  0
SEQEND
  8
0
  0
POLYLINE
  8
0
 66
1
 10
0.0000
 20
0.0000
 30
0.0000
 40
0.0500
 41
0.0500
 70
0
  0
VERTEX
  8
0
 10
-0.2379
 20
0.4750
 30
0.0000
 42
1.0000
  0
VERTEX
  8
0
 10
-0.2379
 20
0.4250
 30
0.0000
  0
SEQEND
  8
0
  0
POLYLINE
  8
0
 66
1
 10
0.0000
 20
0.0000
 30
0.0000
 40
0.1000
 41
0.1000
 70
0
  0
VERTEX
  8
0
 10
0.4500
 20
0.2379
 30
0.0000
  0
VERTEX
  8
0
 10
0.4500
 20
-0.2379
 30
0.0000
  0
SEQEND
  8
0
  0
POLYLINE
  8
0
 66
1
 10
0.0000
 20
0.0000
 30
0.0000
 40
0.0500
 41
0.0500
 70
0
  0
VERTEX
  8
0
 10
0.4250
 20
-0.2379
 30
0.0000
 42
1.0000
  0
VERTEX
  8
0
 10
0.4750
 20
-0.2379
 30
0.0000
  0
SEQEND
  8
0
  0
POLYLINE
  8
0
 66
1
 10
0.0000
 20
0.0000
 30
0.0000
 40
0.0500
 41
0.0500
 70
0
  0
VERTEX
  8
0
 10
0.4750
 20
0.2379
 30
0.0000
 42
1.0000
  0
VERTEX
  8
0
 10
0.4250
 20
0.2379
 30
0.0000
  0
SEQEND
  8
0
  0
POLYLINE
  8
0
 66
1
 10
0.0000
 20
0.0000
 30
0.0000
 40
0.1000
 41
0.1000
 70
0
  0
VERTEX
  8
0
 10
0.2379
 20
-0.4500
 30
0.0000
  0
VERTEX
  8
0
 10
-0.2379
 20
-0.4500
 30
0.0000
  0
SEQEND
  8
0
  0
POLYLINE
  8
0
 66
1
 10
0.0000
 20
0.0000
 30
0.0000
 40
0.0500
 41
0.0500
 70
0
  0
VERTEX
  8
0
 10
-0.2379
 20
-0.4250
 30
0.0000
 42
1.0000
  0
VERTEX
  8
0
 10
-0.2379
 20
-0.4750
 30
0.0000
  0
SEQEND
  8
0
  0
POLYLINE
  8
0
 66
1
 10
0.0000
 20
0.0000
 30
0.0000
 40
0.0500
 41
0.0500
 70
0
  0
VERTEX
  8
0
 10
0.2379
 20
-0.4750
 30
0.0000
 42
1.0000
  0
VERTEX
  8
0
 10
0.2379
 20
-0.4250
 30
0.0000
  0
SEQEND
  8
0
  0
POLYLINE
  8
0
 66
1
 10
0.0000
 20
0.0000
 30
0.0000
 40
0.1000
 41
0.1000
 70
0
  0
VERTEX
  8
0
 10
-0.4500
 20
-0.2379
 30
0.0000
  0
VERTEX
  8
0
 10
-0.4500
 20
0.2379
 30
0.0000
  0
SEQEND
  8
0
  0
POLYLINE
  8
0
 66
1
 10
0.0000
 20
0.0000
 30
0.0000
 40
0.0500
 41
0.0500
 70
0
  0
VERTEX
  8
0
 10
-0.4250
 20
0.2379
 30
0.0000
 42
1.0000
  0
VERTEX
  8
0
 10
-0.4750
 20
0.2379
 30
0.0000
  0
SEQEND
  8
0
  0
POLYLINE
  8
0
 66
1
 10
0.0000
 20
0.0000
 30
0.0000
 40
0.0500
 41
0.0500
 70
0
  0
VERTEX
  8
0
 10
-0.4750
 20
-0.2379
 30
0.0000
 42
1.0000
  0
VERTEX
  8
0
 10
-0.4250
 20
-0.2379
 30
0.0000
  0
SEQEND
  8
0
  0
ENDBLK
  8
0
  0
BLOCK
  8
0
  2
OCTAGONV
 70
64
 10
0.0000
 20
0.0000
 30
0.0000
  3
OCTAGONV
  0
POLYLINE
  8
0
 66
1
 10
0.0000
 20
0.0000
 30
0.0000
 40
0.5000
 41
0.5000
 70
0
  0
VERTEX
  8
0
 10
-0.2500
 20
-0.1036
 30
0.0000
  0
VERTEX
  8
0
 10
-0.2500
 20
0.1036
 30
0.0000
  0
VERTEX
  8
0
 10
-0.1036
 20
0.2500
 30
0.0000
  0
VERTEX
  8
0
 10
0.1036
 20
0.2500
 30
0.0000
  0
VERTEX
  8
0
 10
0.2500
 20
0.1036
 30
0.0000
  0
VERTEX
  8
0
 10
0.2500
 20
-0.1036
 30
0.0000
  0
VERTEX
  8
0
 10
0.1036
 20
-0.2500
 30
0.0000
  0
VERTEX
  8
0
 10
-0.1036
 20
-0.2500
 30
0.0000
  0
VERTEX
  8
0
 10
-0.2500
 20
-0.1036
 30
0.0000
  0
VERTEX
  8
0
 10
-0.2500
 20
0.1036
 30
0.0000
  0
SEQEND
  8
0
  0
ENDBLK
  8
0
  0
BLOCK
  8
0
  2
SQUAREV
 70
64
 10
0.0000
 20
0.0000
 30
0.0000
  3
SQUAREV
  0
SOLID
  8
0
 10
-0.5000
 20
-0.5000
 30
0.0000
 11
0.5000
 21
-0.5000
 31
0.0000
 12
-0.5000
 22
0.5000
 32
0.0000
 13
0.5000
 23
0.5000
 33
0.0000
  0
ENDBLK
  8
0
  0
BLOCK
  8
0
  2
ROUNDV
 70
64
 10
0.0000
 20
0.0000
 30
0.0000
  3
ROUNDV
  0
POLYLINE
  8
0
 66
1
 10
0.0000
 20
0.0000
 30
0.0000
 40
0.5000
 41
0.5000
 70
0
  0
VERTEX
  8
0
 10
0.0000
 20
-0.2500
 30
0.0000
 42
1.0000
  0
VERTEX
  8
0
 10
0.0000
 20
0.2500
 30
0.0000
 42
1.0000
  0
VERTEX
  8
0
 10
0.0000
 20
-0.2500
 30
0.0000
  0
SEQEND
  8
0
  0
ENDBLK
  8
0
  0
BLOCK
  8
0
  2
ANNULUSV
 70
64
 10
0.0000
 20
0.0000
 30
0.0000
  3
ANNULUSV
  0
POLYLINE
  8
0
 66
1
 10
0.0000
 20
0.0000
 30
0.0000
 40
0.5000
 41
0.5000
 70
0
  0
VERTEX
  8
0
 10
0.0000
 20
-0.2500
 30
0.0000
 42
1.0000
  0
VERTEX
  8
0
 10
0.0000
 20
0.2500
 30
0.0000
 42
1.0000
  0
VERTEX
  8
0
 10
0.0000
 20
-0.2500
 30
0.0000
  0
SEQEND
  8
0
  0
ENDBLK
  8
0
  0
BLOCK
  8
0
  2
THERMALV
 70
64
 10
0.0000
 20
0.0000
 30
0.0000
  3
THERMALV
  0
POLYLINE
  8
0
 66
1
 10
0.0000
 20
0.0000
 30
0.0000
 40
0.1000
 41
0.1000
 70
0
  0
VERTEX
  8
0
 10
-0.2379
 20
0.4500
 30
0.0000
  0
VERTEX
  8
0
 10
0.2379
 20
0.4500
 30
0.0000
  0
SEQEND
  8
0
  0
POLYLINE
  8
0
 66
1
 10
0.0000
 20
0.0000
 30
0.0000
 40
0.0500
 41
0.0500
 70
0
  0
VERTEX
  8
0
 10
0.2379
 20
0.4250
 30
0.0000
 42
1.0000
  0
VERTEX
  8
0
 10
0.2379
 20
0.4750
 30
0.0000
  0
SEQEND
  8
0
  0
POLYLINE
  8
0
 66
1
 10
0.0000
 20
0.0000
 30
0.0000
 40
0.0500
 41
0.0500
 70
0
  0
VERTEX
  8
0
 10
-0.2379
 20
0.4750
 30
0.0000
 42
1.0000
  0
VERTEX
  8
0
 10
-0.2379
 20
0.4250
 30
0.0000
  0
SEQEND
  8
0
  0
POLYLINE
  8
0
 66
1
 10
0.0000
 20
0.0000
 30
0.0000
 40
0.1000
 41
0.1000
 70
0
  0
VERTEX
  8
0
 10
0.4500
 20
0.2379
 30
0.0000
  0
VERTEX
  8
0
 10
0.4500
 20
-0.2379
 30
0.0000
  0
SEQEND
  8
0
  0
POLYLINE
  8
0
 66
1
 10
0.0000
 20
0.0000
 30
0.0000
 40
0.0500
 41
0.0500
 70
0
  0
VERTEX
  8
0
 10
0.4250
 20
-0.2379
 30
0.0000
 42
1.0000
  0
VERTEX
  8
0
 10
0.4750
 20
-0.2379
 30
0.0000
  0
SEQEND
  8
0
  0
POLYLINE
  8
0
 66
1
 10
0.0000
 20
0.0000
 30
0.0000
 40
0.0500
 41
0.0500
 70
0
  0
VERTEX
  8
0
 10
0.4750
 20
0.2379
 30
0.0000
 42
1.0000
  0
VERTEX
  8
0
 10
0.4250
 20
0.2379
 30
0.0000
  0
SEQEND
  8
0
  0
POLYLINE
  8
0
 66
1
 10
0.0000
 20
0.0000
 30
0.0000
 40
0.1000
 41
0.1000
 70
0
  0
VERTEX
  8
0
 10
0.2379
 20
-0.4500
 30
0.0000
  0
VERTEX
  8
0
 10
-0.2379
 20
-0.4500
 30
0.0000
  0
SEQEND
  8
0
  0
POLYLINE
  8
0
 66
1
 10
0.0000
 20
0.0000
 30
0.0000
 40
0.0500
 41
0.0500
 70
0
  0
VERTEX
  8
0
 10
-0.2379
 20
-0.4250
 30
0.0000
 42
1.0000
  0
VERTEX
  8
0
 10
-0.2379
 20
-0.4750
 30
0.0000
  0
SEQEND
  8
0
  0
POLYLINE
  8
0
 66
1
 10
0.0000
 20
0.0000
 30
0.0000
 40
0.0500
 41
0.0500
 70
0
  0
VERTEX
  8
0
 10
0.2379
 20
-0.4750
 30
0.0000
 42
1.0000
  0
VERTEX
  8
0
 10
0.2379
 20
-0.4250
 30
0.0000
  0
SEQEND
  8
0
  0
POLYLINE
  8
0
 66
1
 10
0.0000
 20
0.0000
 30
0.0000
 40
0.1000
 41
0.1000
 70
0
  0
VERTEX
  8
0
 10
-0.4500
 20
-0.2379
 30
0.0000
  0
VERTEX
  8
0
 10
-0.4500
 20
0.2379
 30
0.0000
  0
SEQEND
  8
0
  0
POLYLINE
  8
0
 66
1
 10
0.0000
 20
0.0000
 30
0.0000
 40
0.0500
 41
0.0500
 70
0
  0
VERTEX
  8
0
 10
-0.4250
 20
0.2379
 30
0.0000
 42
1.0000
  0
VERTEX
  8
0
 10
-0.4750
 20
0.2379
 30
0.0000
  0
SEQEND
  8
0
  0
POLYLINE
  8
0
 66
1
 10
0.0000
 20
0.0000
 30
0.0000
 40
0.0500
 41
0.0500
 70
0
  0
VERTEX
  8
0
 10
-0.4750
 20
-0.2379
 30
0.0000
 42
1.0000
  0
VERTEX
  8
0
 10
-0.4250
 20
-0.2379
 30
0.0000
  0
SEQEND
  8
0
  0
ENDBLK
  8
0
  0
ENDSEC
  0
SECTION
  2
ENTITIES
  0
LINE
  8
20
 10
69.3958
 20
-19.8147
 30
0.0000
 11
124.2872
 21
-28.8660
 31
0.0000
  0
ARC
  8
20
 10
124.4499
 20
-27.8793
 30
0.0000
 40
1.0000
 50
260.6367
 51
339.5961
  0
LINE
  8
20
 10
125.3872
 20
-28.2279
 30
0.0000
 11
132.7373
 21
-8.4687
 31
0.0000
  0
ARC
  8
20
 10
131.8000
 20
-8.1200
 30
0.0000
 40
1.0000
 50
339.5958
 51
360.0000
  0
LINE
  8
20
 10
132.8000
 20
-8.1200
 30
0.0000
 11
132.8000
 21
12.3000
 31
0.0000
  0
ARC
  8
20
 10
131.8000
 20
12.3000
 30
0.0000
 40
1.0000
 50
0.0000
 51
90.0000
  0
LINE
  8
20
 10
131.8000
 20
13.3000
 30
0.0000
 11
115.4000
 21
13.3000
 31
0.0000
  0
ARC
  8
20
 10
69.5585
 20
-18.8281
 30
0.0000
 40
1.0000
 50
190.2545
 51
260.6365
  0
LINE
  8
20
 10
68.5745
 20
-19.0061
 30
0.0000
 11
65.2487
 21
-0.6220
 31
0.0000
  0
ARC
  8
20
 10
115.4000
 20
14.3000
 30
0.0000
 40
1.0000
 50
180.0000
 51
270.0000
  0
LINE
  8
20
 10
114.4000
 20
14.3000
 30
0.0000
 11
114.4000
 21
62.0000
 31
0.0000
  0
ARC
  8
20
 10
113.4000
 20
62.0000
 30
0.0000
 40
1.0000
 50
0.0000
 51
90.0000
  0
LINE
  8
20
 10
113.4000
 20
63.0000
 30
0.0000
 11
1.0000
 21
63.0000
 31
0.0000
  0
ARC
  8
20
 10
1.0000
 20
62.0000
 30
0.0000
 40
1.0000
 50
90.0000
 51
180.0000
  0
ARC
  8
20
 10
64.2647
 20
-0.8000
 30
0.0000
 40
1.0000
 50
10.2543
 51
90.0001
  0
LINE
  8
20
 10
64.2647
 20
0.2000
 30
0.0000
 11
1.0000
 21
0.2000
 31
0.0000
  0
ARC
  8
20
 10
1.0000
 20
1.2000
 30
0.0000
 40
1.0000
 50
180.0000
 51
270.0000
  0
LINE
  8
20
 10
0.0000
 20
1.2000
 30
0.0000
 11
0.0000
 21
62.0000
 31
0.0000
  0
LINE
  8
20
 10
117.0000
 20
-2.5000
 30
0.0000
 11
119.9500
 21
-2.5000
 31
0.0000
  0
ARC
  8
20
 10
119.9500
 20
-2.7500
 30
0.0000
 40
0.2500
 50
0.0000
 51
90.0000
  0
LINE
  8
20
 10
120.2000
 20
-2.7500
 30
0.0000
 11
120.2000
 21
-4.0500
 31
0.0000
  0
ARC
  8
20
 10
120.4500
 20
-4.0500
 30
0.0000
 40
0.2500
 50
180.0000
 51
270.0000
  0
LINE
  8
20
 10
120.4500
 20
-4.3000
 30
0.0000
 11
126.4500
 21
-4.3000
 31
0.0000
  0
ARC
  8
20
 10
126.4500
 20
-4.0500
 30
0.0000
 40
0.2500
 50
270.0000
 51
0.0000
  0
LINE
  8
20
 10
126.7000
 20
-4.0500
 30
0.0000
 11
126.7000
 21
-2.7500
 31
0.0000
  0
ARC
  8
20
 10
126.9500
 20
-2.7500
 30
0.0000
 40
0.2500
 50
90.0000
 51
180.0000
  0
LINE
  8
20
 10
126.9500
 20
-2.5000
 30
0.0000
 11
130.1000
 21
-2.5000
 31
0.0000
  0
LINE
  8
20
 10
130.1000
 20
-2.5000
 30
0.0000
 11
130.1000
 21
10.5000
 31
0.0000
  0
LINE
  8
20
 10
130.1000
 20
10.5000
 30
0.0000
 11
127.0500
 21
10.5000
 31
0.0000
  0
ARC
  8
20
 10
127.0500
 20
10.7500
 30
0.0000
 40
0.2500
 50
180.0000
 51
270.0000
  0
LINE
  8
20
 10
126.8000
 20
10.7500
 30
0.0000
 11
126.8000
 21
11.6500
 31
0.0000
  0
ARC
  8
20
 10
126.5500
 20
11.6500
 30
0.0000
 40
0.2500
 50
0.0000
 51
90.0000
  0
LINE
  8
20
 10
126.5500
 20
11.9000
 30
0.0000
 11
120.4500
 21
11.9000
 31
0.0000
  0
ARC
  8
20
 10
120.4500
 20
11.6500
 30
0.0000
 40
0.2500
 50
90.0000
 51
180.0000
  0
LINE
  8
20
 10
120.2000
 20
11.6500
 30
0.0000
 11
120.2000
 21
10.7500
 31
0.0000
  0
ARC
  8
20
 10
119.9500
 20
10.7500
 30
0.0000
 40
0.2500
 50
270.0000
 51
0.0000
  0
LINE
  8
20
 10
119.9500
 20
10.5000
 30
0.0000
 11
117.0000
 21
10.5000
 31
0.0000
  0
LINE
  8
20
 10
117.0000
 20
10.5000
 30
0.0000
 11
117.0000
 21
-2.5000
 31
0.0000
  0
CIRCLE
  8
20
 10
7.0000
 20
59.9300
 30
0.0000
 40
1.0500
  0
CIRCLE
  8
20
 10
107.9500
 20
59.9300
 30
0.0000
 40
1.0500
  0
CIRCLE
  8
20
 10
109.6150
 20
-11.6850
 30
0.0000
 40
1.0500
  0
CIRCLE
  8
20
 10
19.5000
 20
19.7000
 30
0.0000
 40
1.0500
  0
CIRCLE
  8
20
 10
67.3000
 20
24.7000
 30
0.0000
 40
1.0500
  0
LINE
  8
20
 10
3.0000
 20
55.2000
 30
0.0000
 11
3.0000
 21
41.2000
 31
0.0000
  0
LINE
  8
20
 10
3.0000
 20
41.2000
 30
0.0000
 11
17.0000
 21
41.2000
 31
0.0000
  0
LINE
  8
20
 10
17.0000
 20
41.2000
 30
0.0000
 11
17.0000
 21
55.2000
 31
0.0000
  0
LINE
  8
20
 10
17.0000
 20
55.2000
 30
0.0000
 11
3.0000
 21
55.2000
 31
0.0000
  0
LINE
  8
20
 10
3.0000
 20
36.2000
 30
0.0000
 11
3.0000
 21
22.2000
 31
0.0000
  0
LINE
  8
20
 10
3.0000
 20
22.2000
 30
0.0000
 11
17.0000
 21
22.2000
 31
0.0000
  0
LINE
  8
20
 10
17.0000
 20
22.2000
 30
0.0000
 11
17.0000
 21
36.2000
 31
0.0000
  0
LINE
  8
20
 10
17.0000
 20
36.2000
 30
0.0000
 11
3.0000
 21
36.2000
 31
0.0000
  0
LINE
  8
20
 10
3.0000
 20
17.2000
 30
0.0000
 11
3.0000
 21
3.2000
 31
0.0000
  0
LINE
  8
20
 10
3.0000
 20
3.2000
 30
0.0000
 11
17.0000
 21
3.2000
 31
0.0000
  0
LINE
  8
20
 10
17.0000
 20
3.2000
 30
0.0000
 11
17.0000
 21
17.2000
 31
0.0000
  0
LINE
  8
20
 10
17.0000
 20
17.2000
 30
0.0000
 11
3.0000
 21
17.2000
 31
0.0000
  0
LINE
  8
20
 10
22.0000
 20
55.2000
 30
0.0000
 11
22.0000
 21
41.2000
 31
0.0000
  0
LINE
  8
20
 10
22.0000
 20
41.2000
 30
0.0000
 11
36.0000
 21
41.2000
 31
0.0000
  0
LINE
  8
20
 10
36.0000
 20
41.2000
 30
0.0000
 11
36.0000
 21
55.2000
 31
0.0000
  0
LINE
  8
20
 10
36.0000
 20
55.2000
 30
0.0000
 11
22.0000
 21
55.2000
 31
0.0000
  0
LINE
  8
20
 10
22.0000
 20
36.2000
 30
0.0000
 11
22.0000
 21
22.2000
 31
0.0000
  0
LINE
  8
20
 10
22.0000
 20
22.2000
 30
0.0000
 11
36.0000
 21
22.2000
 31
0.0000
  0
LINE
  8
20
 10
36.0000
 20
22.2000
 30
0.0000
 11
36.0000
 21
36.2000
 31
0.0000
  0
LINE
  8
20
 10
36.0000
 20
36.2000
 30
0.0000
 11
22.0000
 21
36.2000
 31
0.0000
  0
LINE
  8
20
 10
22.0000
 20
17.2000
 30
0.0000
 11
22.0000
 21
3.2000
 31
0.0000
  0
LINE
  8
20
 10
22.0000
 20
3.2000
 30
0.0000
 11
36.0000
 21
3.2000
 31
0.0000
  0
LINE
  8
20
 10
36.0000
 20
3.2000
 30
0.0000
 11
36.0000
 21
17.2000
 31
0.0000
  0
LINE
  8
20
 10
36.0000
 20
17.2000
 30
0.0000
 11
22.0000
 21
17.2000
 31
0.0000
  0
LINE
  8
20
 10
93.3819
 20
-3.0408
 30
0.0000
 11
90.9508
 21
-16.8281
 31
0.0000
  0
LINE
  8
20
 10
90.9508
 20
-16.8281
 30
0.0000
 11
104.7381
 21
-19.2592
 31
0.0000
  0
LINE
  8
20
 10
104.7381
 20
-19.2592
 30
0.0000
 11
107.1692
 21
-5.4719
 31
0.0000
  0
LINE
  8
20
 10
107.1692
 20
-5.4719
 30
0.0000
 11
93.3819
 21
-3.0408
 31
0.0000
  0
LINE
  8
20
 10
41.0000
 20
58.2000
 30
0.0000
 11
41.0000
 21
44.2000
 31
0.0000
  0
LINE
  8
20
 10
41.0000
 20
44.2000
 30
0.0000
 11
55.0000
 21
44.2000
 31
0.0000
  0
LINE
  8
20
 10
55.0000
 20
44.2000
 30
0.0000
 11
55.0000
 21
58.2000
 31
0.0000
  0
LINE
  8
20
 10
55.0000
 20
58.2000
 30
0.0000
 11
41.0000
 21
58.2000
 31
0.0000
  0
LINE
  8
20
 10
41.0000
 20
39.2000
 30
0.0000
 11
41.0000
 21
25.2000
 31
0.0000
  0
LINE
  8
20
 10
41.0000
 20
25.2000
 30
0.0000
 11
55.0000
 21
25.2000
 31
0.0000
  0
LINE
  8
20
 10
55.0000
 20
25.2000
 30
0.0000
 11
55.0000
 21
39.2000
 31
0.0000
  0
LINE
  8
20
 10
55.0000
 20
39.2000
 30
0.0000
 11
41.0000
 21
39.2000
 31
0.0000
  0
LINE
  8
20
 10
41.0000
 20
20.2000
 30
0.0000
 11
41.0000
 21
6.2000
 31
0.0000
  0
LINE
  8
20
 10
41.0000
 20
6.2000
 30
0.0000
 11
55.0000
 21
6.2000
 31
0.0000
  0
LINE
  8
20
 10
55.0000
 20
6.2000
 30
0.0000
 11
55.0000
 21
20.2000
 31
0.0000
  0
LINE
  8
20
 10
55.0000
 20
20.2000
 30
0.0000
 11
41.0000
 21
20.2000
 31
0.0000
  0
LINE
  8
20
 10
60.0000
 20
60.2000
 30
0.0000
 11
60.0000
 21
46.2000
 31
0.0000
  0
LINE
  8
20
 10
60.0000
 20
46.2000
 30
0.0000
 11
74.0000
 21
46.2000
 31
0.0000
  0
LINE
  8
20
 10
74.0000
 20
46.2000
 30
0.0000
 11
74.0000
 21
60.2000
 31
0.0000
  0
LINE
  8
20
 10
74.0000
 20
60.2000
 30
0.0000
 11
60.0000
 21
60.2000
 31
0.0000
  0
LINE
  8
20
 10
60.0000
 20
41.2000
 30
0.0000
 11
60.0000
 21
27.2000
 31
0.0000
  0
LINE
  8
20
 10
60.0000
 20
27.2000
 30
0.0000
 11
74.0000
 21
27.2000
 31
0.0000
  0
LINE
  8
20
 10
74.0000
 20
27.2000
 30
0.0000
 11
74.0000
 21
41.2000
 31
0.0000
  0
LINE
  8
20
 10
74.0000
 20
41.2000
 30
0.0000
 11
60.0000
 21
41.2000
 31
0.0000
  0
LINE
  8
20
 10
60.0000
 20
22.2000
 30
0.0000
 11
60.0000
 21
8.2000
 31
0.0000
  0
LINE
  8
20
 10
60.0000
 20
8.2000
 30
0.0000
 11
74.0000
 21
8.2000
 31
0.0000
  0
LINE
  8
20
 10
74.0000
 20
8.2000
 30
0.0000
 11
74.0000
 21
22.2000
 31
0.0000
  0
LINE
  8
20
 10
74.0000
 20
22.2000
 30
0.0000
 11
60.0000
 21
22.2000
 31
0.0000
  0
LINE
  8
20
 10
71.4100
 20
-2.4300
 30
0.0000
 11
71.4100
 21
-16.4300
 31
0.0000
  0
LINE
  8
20
 10
71.4100
 20
-16.4300
 30
0.0000
 11
85.4100
 21
-16.4300
 31
0.0000
  0
LINE
  8
20
 10
85.4100
 20
-16.4300
 30
0.0000
 11
85.4100
 21
-2.4300
 31
0.0000
  0
LINE
  8
20
 10
85.4100
 20
-2.4300
 30
0.0000
 11
71.4100
 21
-2.4300
 31
0.0000
  0
LINE
  8
20
 10
79.0000
 20
58.2000
 30
0.0000
 11
79.0000
 21
44.2000
 31
0.0000
  0
LINE
  8
20
 10
79.0000
 20
44.2000
 30
0.0000
 11
93.0000
 21
44.2000
 31
0.0000
  0
LINE
  8
20
 10
93.0000
 20
44.2000
 30
0.0000
 11
93.0000
 21
58.2000
 31
0.0000
  0
LINE
  8
20
 10
93.0000
 20
58.2000
 30
0.0000
 11
79.0000
 21
58.2000
 31
0.0000
  0
LINE
  8
20
 10
79.0000
 20
39.2000
 30
0.0000
 11
79.0000
 21
25.2000
 31
0.0000
  0
LINE
  8
20
 10
79.0000
 20
25.2000
 30
0.0000
 11
93.0000
 21
25.2000
 31
0.0000
  0
LINE
  8
20
 10
93.0000
 20
25.2000
 30
0.0000
 11
93.0000
 21
39.2000
 31
0.0000
  0
LINE
  8
20
 10
93.0000
 20
39.2000
 30
0.0000
 11
79.0000
 21
39.2000
 31
0.0000
  0
LINE
  8
20
 10
79.0000
 20
20.2000
 30
0.0000
 11
79.0000
 21
6.2000
 31
0.0000
  0
LINE
  8
20
 10
79.0000
 20
6.2000
 30
0.0000
 11
93.0000
 21
6.2000
 31
0.0000
  0
LINE
  8
20
 10
93.0000
 20
6.2000
 30
0.0000
 11
93.0000
 21
20.2000
 31
0.0000
  0
LINE
  8
20
 10
93.0000
 20
20.2000
 30
0.0000
 11
79.0000
 21
20.2000
 31
0.0000
  0
LINE
  8
20
 10
114.8763
 20
-7.4380
 30
0.0000
 11
110.0880
 21
-20.5937
 31
0.0000
  0
LINE
  8
20
 10
110.0880
 20
-20.5937
 30
0.0000
 11
123.2437
 21
-25.3820
 31
0.0000
  0
LINE
  8
20
 10
123.2437
 20
-25.3820
 30
0.0000
 11
128.0320
 21
-12.2263
 31
0.0000
  0
LINE
  8
20
 10
128.0320
 20
-12.2263
 30
0.0000
 11
114.8763
 21
-7.4380
 31
0.0000
  0
LINE
  8
20
 10
98.0000
 20
55.2000
 30
0.0000
 11
98.0000
 21
41.2000
 31
0.0000
  0
LINE
  8
20
 10
98.0000
 20
41.2000
 30
0.0000
 11
112.0000
 21
41.2000
 31
0.0000
  0
LINE
  8
20
 10
112.0000
 20
41.2000
 30
0.0000
 11
112.0000
 21
55.2000
 31
0.0000
  0
LINE
  8
20
 10
112.0000
 20
55.2000
 30
0.0000
 11
98.0000
 21
55.2000
 31
0.0000
  0
LINE
  8
20
 10
98.0000
 20
36.2000
 30
0.0000
 11
98.0000
 21
22.2000
 31
0.0000
  0
LINE
  8
20
 10
98.0000
 20
22.2000
 30
0.0000
 11
112.0000
 21
22.2000
 31
0.0000
  0
LINE
  8
20
 10
112.0000
 20
22.2000
 30
0.0000
 11
112.0000
 21
36.2000
 31
0.0000
  0
LINE
  8
20
 10
112.0000
 20
36.2000
 30
0.0000
 11
98.0000
 21
36.2000
 31
0.0000
  0
LINE
  8
20
 10
98.0000
 20
17.2000
 30
0.0000
 11
98.0000
 21
3.2000
 31
0.0000
  0
LINE
  8
20
 10
98.0000
 20
3.2000
 30
0.0000
 11
112.0000
 21
3.2000
 31
0.0000
  0
LINE
  8
20
 10
112.0000
 20
3.2000
 30
0.0000
 11
112.0000
 21
17.2000
 31
0.0000
  0
LINE
  8
20
 10
112.0000
 20
17.2000
 30
0.0000
 11
98.0000
 21
17.2000
 31
0.0000
  0
ENDSEC
  0
EOF
