  0
SECTION
  2
HEADER
  9
$ACADVER
  1
AC1009
  9
$FILLMODE
 70
1
  9
$EXTMIN
 10
9.8652
 20
-16.0150
 30
0.0000
  9
$EXTMAX
 10
124.0650
 20
80.0650
 30
0.0000
  0
ENDSEC
  0
SECTION
  2
TABLES
  0
TABLE
  2
LTYPE
 70
1
  0
LTYPE
  2
CONTINUOUS
 70
64
  3
Solid line
 72
65
 73
0
 40
0
  0
ENDTAB
  0
TABLE
  2
LAYER
 70
255
  0
LAYER
  2
17
 70
64
 62
110
  6
CONTINUOUS
  0
LAYER
  2
18
 70
64
 62
110
  6
CONTINUOUS
  0
LAYER
  2
19
 70
64
 62
53
  6
CONTINUOUS
  0
LAYER
  2
20
 70
64
 62
53
  6
CONTINUOUS
  0
LAYER
  2
24
 70
64
 62
53
  6
CONTINUOUS
  0
LAYER
  2
26
 70
64
 62
253
  6
CONTINUOUS
  0
LAYER
  2
27
 70
64
 62
253
  6
CONTINUOUS
  0
LAYER
  2
28
 70
64
 62
253
  6
CONTINUOUS
  0
LAYER
  2
41
 70
64
 62
12
  6
CONTINUOUS
  0
LAYER
  2
42
 70
64
 62
132
  6
CONTINUOUS
  0
LAYER
  2
48
 70
64
 62
253
  6
CONTINUOUS
  0
LAYER
  2
49
 70
64
 62
253
  6
CONTINUOUS
  0
LAYER
  2
51
 70
64
 62
2
  6
CONTINUOUS
  0
LAYER
  2
52
 70
64
 62
253
  6
CONTINUOUS
  0
LAYER
  2
114
 70
64
 62
253
  6
CONTINUOUS
  0
LAYER
  2
115
 70
64
 62
253
  6
CONTINUOUS
  0
LAYER
  2
117
 70
64
 62
253
  6
CONTINUOUS
  0
LAYER
  2
119
 70
64
 62
253
  6
CONTINUOUS
  0
LAYER
  2
120
 70
64
 62
253
  6
CONTINUOUS
  0
LAYER
  2
129
 70
64
 62
253
  6
CONTINUOUS
  0
LAYER
  2
130
 70
64
 62
253
  6
CONTINUOUS
  0
LAYER
  2
133
 70
64
 62
253
  6
CONTINUOUS
  0
LAYER
  2
136
 70
64
 62
132
  6
CONTINUOUS
  0
LAYER
  2
229
 70
64
 62
253
  6
CONTINUOUS
  0
LAYER
  2
231
 70
64
 62
253
  6
CONTINUOUS
  0
LAYER
  2
232
 70
64
 62
253
  6
CONTINUOUS
  0
LAYER
  2
233
 70
64
 62
253
  6
CONTINUOUS
  0
LAYER
  2
255
 70
64
 62
253
  6
CONTINUOUS
  0
ENDTAB
  0
ENDSEC
  0
SECTION
  2
BLOCKS
  0
BLOCK
  8
0
  2
RECT
 70
64
 10
0.0000
 20
0.0000
 30
0.0000
  3
RECT
  0
SOLID
  8
0
 10
-0.5000
 20
-0.5000
 30
0.0000
 11
0.5000
 21
-0.5000
 31
0.0000
 12
-0.5000
 22
0.5000
 32
0.0000
 13
0.5000
 23
0.5000
 33
0.0000
  0
ENDBLK
  8
0
  0
BLOCK
  8
0
  2
PIE
 70
64
 10
0.0000
 20
0.0000
 30
0.0000
  3
PIE
  0
POLYLINE
  8
0
 66
1
 10
0.0000
 20
0.0000
 30
0.0000
 40
0.5000
 41
0.5000
 70
0
  0
VERTEX
  8
0
 10
0.0000
 20
-0.2500
 30
0.0000
 42
1.0000
  0
VERTEX
  8
0
 10
0.0000
 20
0.2500
 30
0.0000
 42
1.0000
  0
VERTEX
  8
0
 10
0.0000
 20
-0.2500
 30
0.0000
  0
SEQEND
  8
0
  0
ENDBLK
  8
0
  0
BLOCK
  8
0
  2
OCTAGONP
 70
64
 10
0.0000
 20
0.0000
 30
0.0000
  3
OCTAGONP
  0
POLYLINE
  8
0
 66
1
 10
0.0000
 20
0.0000
 30
0.0000
 40
0.5000
 41
0.5000
 70
0
  0
VERTEX
  8
0
 10
-0.2500
 20
-0.1036
 30
0.0000
  0
VERTEX
  8
0
 10
-0.2500
 20
0.1036
 30
0.0000
  0
VERTEX
  8
0
 10
-0.1036
 20
0.2500
 30
0.0000
  0
VERTEX
  8
0
 10
0.1036
 20
0.2500
 30
0.0000
  0
VERTEX
  8
0
 10
0.2500
 20
0.1036
 30
0.0000
  0
VERTEX
  8
0
 10
0.2500
 20
-0.1036
 30
0.0000
  0
VERTEX
  8
0
 10
0.1036
 20
-0.2500
 30
0.0000
  0
VERTEX
  8
0
 10
-0.1036
 20
-0.2500
 30
0.0000
  0
VERTEX
  8
0
 10
-0.2500
 20
-0.1036
 30
0.0000
  0
VERTEX
  8
0
 10
-0.2500
 20
0.1036
 30
0.0000
  0
SEQEND
  8
0
  0
ENDBLK
  8
0
  0
BLOCK
  8
0
  2
SQUAREP
 70
64
 10
0.0000
 20
0.0000
 30
0.0000
  3
SQUAREP
  0
SOLID
  8
0
 10
-0.5000
 20
-0.5000
 30
0.0000
 11
0.5000
 21
-0.5000
 31
0.0000
 12
-0.5000
 22
0.5000
 32
0.0000
 13
0.5000
 23
0.5000
 33
0.0000
  0
ENDBLK
  8
0
  0
BLOCK
  8
0
  2
ROUNDP
 70
64
 10
0.0000
 20
0.0000
 30
0.0000
  3
ROUNDP
  0
POLYLINE
  8
0
 66
1
 10
0.0000
 20
0.0000
 30
0.0000
 40
0.5000
 41
0.5000
 70
0
  0
VERTEX
  8
0
 10
0.0000
 20
-0.2500
 30
0.0000
 42
1.0000
  0
VERTEX
  8
0
 10
0.0000
 20
0.2500
 30
0.0000
 42
1.0000
  0
VERTEX
  8
0
 10
0.0000
 20
-0.2500
 30
0.0000
  0
SEQEND
  8
0
  0
ENDBLK
  8
0
  0
BLOCK
  8
0
  2
ANNULUSP
 70
64
 10
0.0000
 20
0.0000
 30
0.0000
  3
ANNULUSP
  0
POLYLINE
  8
0
 66
1
 10
0.0000
 20
0.0000
 30
0.0000
 40
0.5000
 41
0.5000
 70
0
  0
VERTEX
  8
0
 10
0.0000
 20
-0.2500
 30
0.0000
 42
1.0000
  0
VERTEX
  8
0
 10
0.0000
 20
0.2500
 30
0.0000
 42
1.0000
  0
VERTEX
  8
0
 10
0.0000
 20
-0.2500
 30
0.0000
  0
SEQEND
  8
0
  0
ENDBLK
  8
0
  0
BLOCK
  8
0
  2
THERMALP
 70
64
 10
0.0000
 20
0.0000
 30
0.0000
  3
THERMALP
  0
POLYLINE
  8
0
 66
1
 10
0.0000
 20
0.0000
 30
0.0000
 40
0.1000
 41
0.1000
 70
0
  0
VERTEX
  8
0
 10
-0.2379
 20
0.4500
 30
0.0000
  0
VERTEX
  8
0
 10
0.2379
 20
0.4500
 30
0.0000
  0
SEQEND
  8
0
  0
POLYLINE
  8
0
 66
1
 10
0.0000
 20
0.0000
 30
0.0000
 40
0.0500
 41
0.0500
 70
0
  0
VERTEX
  8
0
 10
0.2379
 20
0.4250
 30
0.0000
 42
1.0000
  0
VERTEX
  8
0
 10
0.2379
 20
0.4750
 30
0.0000
  0
SEQEND
  8
0
  0
POLYLINE
  8
0
 66
1
 10
0.0000
 20
0.0000
 30
0.0000
 40
0.0500
 41
0.0500
 70
0
  0
VERTEX
  8
0
 10
-0.2379
 20
0.4750
 30
0.0000
 42
1.0000
  0
VERTEX
  8
0
 10
-0.2379
 20
0.4250
 30
0.0000
  0
SEQEND
  8
0
  0
POLYLINE
  8
0
 66
1
 10
0.0000
 20
0.0000
 30
0.0000
 40
0.1000
 41
0.1000
 70
0
  0
VERTEX
  8
0
 10
0.4500
 20
0.2379
 30
0.0000
  0
VERTEX
  8
0
 10
0.4500
 20
-0.2379
 30
0.0000
  0
SEQEND
  8
0
  0
POLYLINE
  8
0
 66
1
 10
0.0000
 20
0.0000
 30
0.0000
 40
0.0500
 41
0.0500
 70
0
  0
VERTEX
  8
0
 10
0.4250
 20
-0.2379
 30
0.0000
 42
1.0000
  0
VERTEX
  8
0
 10
0.4750
 20
-0.2379
 30
0.0000
  0
SEQEND
  8
0
  0
POLYLINE
  8
0
 66
1
 10
0.0000
 20
0.0000
 30
0.0000
 40
0.0500
 41
0.0500
 70
0
  0
VERTEX
  8
0
 10
0.4750
 20
0.2379
 30
0.0000
 42
1.0000
  0
VERTEX
  8
0
 10
0.4250
 20
0.2379
 30
0.0000
  0
SEQEND
  8
0
  0
POLYLINE
  8
0
 66
1
 10
0.0000
 20
0.0000
 30
0.0000
 40
0.1000
 41
0.1000
 70
0
  0
VERTEX
  8
0
 10
0.2379
 20
-0.4500
 30
0.0000
  0
VERTEX
  8
0
 10
-0.2379
 20
-0.4500
 30
0.0000
  0
SEQEND
  8
0
  0
POLYLINE
  8
0
 66
1
 10
0.0000
 20
0.0000
 30
0.0000
 40
0.0500
 41
0.0500
 70
0
  0
VERTEX
  8
0
 10
-0.2379
 20
-0.4250
 30
0.0000
 42
1.0000
  0
VERTEX
  8
0
 10
-0.2379
 20
-0.4750
 30
0.0000
  0
SEQEND
  8
0
  0
POLYLINE
  8
0
 66
1
 10
0.0000
 20
0.0000
 30
0.0000
 40
0.0500
 41
0.0500
 70
0
  0
VERTEX
  8
0
 10
0.2379
 20
-0.4750
 30
0.0000
 42
1.0000
  0
VERTEX
  8
0
 10
0.2379
 20
-0.4250
 30
0.0000
  0
SEQEND
  8
0
  0
POLYLINE
  8
0
 66
1
 10
0.0000
 20
0.0000
 30
0.0000
 40
0.1000
 41
0.1000
 70
0
  0
VERTEX
  8
0
 10
-0.4500
 20
-0.2379
 30
0.0000
  0
VERTEX
  8
0
 10
-0.4500
 20
0.2379
 30
0.0000
  0
SEQEND
  8
0
  0
POLYLINE
  8
0
 66
1
 10
0.0000
 20
0.0000
 30
0.0000
 40
0.0500
 41
0.0500
 70
0
  0
VERTEX
  8
0
 10
-0.4250
 20
0.2379
 30
0.0000
 42
1.0000
  0
VERTEX
  8
0
 10
-0.4750
 20
0.2379
 30
0.0000
  0
SEQEND
  8
0
  0
POLYLINE
  8
0
 66
1
 10
0.0000
 20
0.0000
 30
0.0000
 40
0.0500
 41
0.0500
 70
0
  0
VERTEX
  8
0
 10
-0.4750
 20
-0.2379
 30
0.0000
 42
1.0000
  0
VERTEX
  8
0
 10
-0.4250
 20
-0.2379
 30
0.0000
  0
SEQEND
  8
0
  0
ENDBLK
  8
0
  0
BLOCK
  8
0
  2
OCTAGONV
 70
64
 10
0.0000
 20
0.0000
 30
0.0000
  3
OCTAGONV
  0
POLYLINE
  8
0
 66
1
 10
0.0000
 20
0.0000
 30
0.0000
 40
0.5000
 41
0.5000
 70
0
  0
VERTEX
  8
0
 10
-0.2500
 20
-0.1036
 30
0.0000
  0
VERTEX
  8
0
 10
-0.2500
 20
0.1036
 30
0.0000
  0
VERTEX
  8
0
 10
-0.1036
 20
0.2500
 30
0.0000
  0
VERTEX
  8
0
 10
0.1036
 20
0.2500
 30
0.0000
  0
VERTEX
  8
0
 10
0.2500
 20
0.1036
 30
0.0000
  0
VERTEX
  8
0
 10
0.2500
 20
-0.1036
 30
0.0000
  0
VERTEX
  8
0
 10
0.1036
 20
-0.2500
 30
0.0000
  0
VERTEX
  8
0
 10
-0.1036
 20
-0.2500
 30
0.0000
  0
VERTEX
  8
0
 10
-0.2500
 20
-0.1036
 30
0.0000
  0
VERTEX
  8
0
 10
-0.2500
 20
0.1036
 30
0.0000
  0
SEQEND
  8
0
  0
ENDBLK
  8
0
  0
BLOCK
  8
0
  2
SQUAREV
 70
64
 10
0.0000
 20
0.0000
 30
0.0000
  3
SQUAREV
  0
SOLID
  8
0
 10
-0.5000
 20
-0.5000
 30
0.0000
 11
0.5000
 21
-0.5000
 31
0.0000
 12
-0.5000
 22
0.5000
 32
0.0000
 13
0.5000
 23
0.5000
 33
0.0000
  0
ENDBLK
  8
0
  0
BLOCK
  8
0
  2
ROUNDV
 70
64
 10
0.0000
 20
0.0000
 30
0.0000
  3
ROUNDV
  0
POLYLINE
  8
0
 66
1
 10
0.0000
 20
0.0000
 30
0.0000
 40
0.5000
 41
0.5000
 70
0
  0
VERTEX
  8
0
 10
0.0000
 20
-0.2500
 30
0.0000
 42
1.0000
  0
VERTEX
  8
0
 10
0.0000
 20
0.2500
 30
0.0000
 42
1.0000
  0
VERTEX
  8
0
 10
0.0000
 20
-0.2500
 30
0.0000
  0
SEQEND
  8
0
  0
ENDBLK
  8
0
  0
BLOCK
  8
0
  2
ANNULUSV
 70
64
 10
0.0000
 20
0.0000
 30
0.0000
  3
ANNULUSV
  0
POLYLINE
  8
0
 66
1
 10
0.0000
 20
0.0000
 30
0.0000
 40
0.5000
 41
0.5000
 70
0
  0
VERTEX
  8
0
 10
0.0000
 20
-0.2500
 30
0.0000
 42
1.0000
  0
VERTEX
  8
0
 10
0.0000
 20
0.2500
 30
0.0000
 42
1.0000
  0
VERTEX
  8
0
 10
0.0000
 20
-0.2500
 30
0.0000
  0
SEQEND
  8
0
  0
ENDBLK
  8
0
  0
BLOCK
  8
0
  2
THERMALV
 70
64
 10
0.0000
 20
0.0000
 30
0.0000
  3
THERMALV
  0
POLYLINE
  8
0
 66
1
 10
0.0000
 20
0.0000
 30
0.0000
 40
0.1000
 41
0.1000
 70
0
  0
VERTEX
  8
0
 10
-0.2379
 20
0.4500
 30
0.0000
  0
VERTEX
  8
0
 10
0.2379
 20
0.4500
 30
0.0000
  0
SEQEND
  8
0
  0
POLYLINE
  8
0
 66
1
 10
0.0000
 20
0.0000
 30
0.0000
 40
0.0500
 41
0.0500
 70
0
  0
VERTEX
  8
0
 10
0.2379
 20
0.4250
 30
0.0000
 42
1.0000
  0
VERTEX
  8
0
 10
0.2379
 20
0.4750
 30
0.0000
  0
SEQEND
  8
0
  0
POLYLINE
  8
0
 66
1
 10
0.0000
 20
0.0000
 30
0.0000
 40
0.0500
 41
0.0500
 70
0
  0
VERTEX
  8
0
 10
-0.2379
 20
0.4750
 30
0.0000
 42
1.0000
  0
VERTEX
  8
0
 10
-0.2379
 20
0.4250
 30
0.0000
  0
SEQEND
  8
0
  0
POLYLINE
  8
0
 66
1
 10
0.0000
 20
0.0000
 30
0.0000
 40
0.1000
 41
0.1000
 70
0
  0
VERTEX
  8
0
 10
0.4500
 20
0.2379
 30
0.0000
  0
VERTEX
  8
0
 10
0.4500
 20
-0.2379
 30
0.0000
  0
SEQEND
  8
0
  0
POLYLINE
  8
0
 66
1
 10
0.0000
 20
0.0000
 30
0.0000
 40
0.0500
 41
0.0500
 70
0
  0
VERTEX
  8
0
 10
0.4250
 20
-0.2379
 30
0.0000
 42
1.0000
  0
VERTEX
  8
0
 10
0.4750
 20
-0.2379
 30
0.0000
  0
SEQEND
  8
0
  0
POLYLINE
  8
0
 66
1
 10
0.0000
 20
0.0000
 30
0.0000
 40
0.0500
 41
0.0500
 70
0
  0
VERTEX
  8
0
 10
0.4750
 20
0.2379
 30
0.0000
 42
1.0000
  0
VERTEX
  8
0
 10
0.4250
 20
0.2379
 30
0.0000
  0
SEQEND
  8
0
  0
POLYLINE
  8
0
 66
1
 10
0.0000
 20
0.0000
 30
0.0000
 40
0.1000
 41
0.1000
 70
0
  0
VERTEX
  8
0
 10
0.2379
 20
-0.4500
 30
0.0000
  0
VERTEX
  8
0
 10
-0.2379
 20
-0.4500
 30
0.0000
  0
SEQEND
  8
0
  0
POLYLINE
  8
0
 66
1
 10
0.0000
 20
0.0000
 30
0.0000
 40
0.0500
 41
0.0500
 70
0
  0
VERTEX
  8
0
 10
-0.2379
 20
-0.4250
 30
0.0000
 42
1.0000
  0
VERTEX
  8
0
 10
-0.2379
 20
-0.4750
 30
0.0000
  0
SEQEND
  8
0
  0
POLYLINE
  8
0
 66
1
 10
0.0000
 20
0.0000
 30
0.0000
 40
0.0500
 41
0.0500
 70
0
  0
VERTEX
  8
0
 10
0.2379
 20
-0.4750
 30
0.0000
 42
1.0000
  0
VERTEX
  8
0
 10
0.2379
 20
-0.4250
 30
0.0000
  0
SEQEND
  8
0
  0
POLYLINE
  8
0
 66
1
 10
0.0000
 20
0.0000
 30
0.0000
 40
0.1000
 41
0.1000
 70
0
  0
VERTEX
  8
0
 10
-0.4500
 20
-0.2379
 30
0.0000
  0
VERTEX
  8
0
 10
-0.4500
 20
0.2379
 30
0.0000
  0
SEQEND
  8
0
  0
POLYLINE
  8
0
 66
1
 10
0.0000
 20
0.0000
 30
0.0000
 40
0.0500
 41
0.0500
 70
0
  0
VERTEX
  8
0
 10
-0.4250
 20
0.2379
 30
0.0000
 42
1.0000
  0
VERTEX
  8
0
 10
-0.4750
 20
0.2379
 30
0.0000
  0
SEQEND
  8
0
  0
POLYLINE
  8
0
 66
1
 10
0.0000
 20
0.0000
 30
0.0000
 40
0.0500
 41
0.0500
 70
0
  0
VERTEX
  8
0
 10
-0.4750
 20
-0.2379
 30
0.0000
 42
1.0000
  0
VERTEX
  8
0
 10
-0.4250
 20
-0.2379
 30
0.0000
  0
SEQEND
  8
0
  0
ENDBLK
  8
0
  0
ENDSEC
  0
SECTION
  2
ENTITIES
  0
LINE
  8
20
 10
115.7400
 20
31.8641
 30
0.0000
 11
115.7400
 21
77.9315
 31
0.0000
  0
ARC
  8
20
 10
113.7400
 20
77.9315
 30
0.0000
 40
2.0000
 50
360.0000
 51
89.9563
  0
LINE
  8
20
 10
113.7415
 20
79.9315
 30
0.0000
 11
26.0015
 21
79.9985
 31
0.0000
  0
ARC
  8
20
 10
25.9993
 20
77.9992
 30
0.0000
 40
1.9993
 50
89.9366
 51
180.0198
  0
LINE
  8
20
 10
24.0000
 20
77.9985
 30
0.0000
 11
24.0000
 21
2.0000
 31
0.0000
  0
ARC
  8
20
 10
26.0000
 20
2.0000
 30
0.0000
 40
2.0000
 50
180.0000
 51
270.0000
  0
LINE
  8
20
 10
26.0000
 20
0.0000
 30
0.0000
 11
121.7200
 21
0.0000
 31
0.0000
  0
ARC
  8
20
 10
121.7200
 20
2.0000
 30
0.0000
 40
2.0000
 50
270.0000
 51
0.0000
  0
LINE
  8
20
 10
123.7200
 20
2.0000
 30
0.0000
 11
123.7200
 21
23.3160
 31
0.0000
  0
ARC
  8
20
 10
121.7200
 20
23.3160
 30
0.0000
 40
2.0000
 50
360.0000
 51
50.0675
  0
LINE
  8
20
 10
123.0038
 20
24.8496
 30
0.0000
 11
116.4562
 21
30.3304
 31
0.0000
  0
ARC
  8
20
 10
117.7400
 20
31.8641
 30
0.0000
 40
2.0000
 50
180.0000
 51
230.0675
  0
CIRCLE
  8
20
 10
34.0000
 20
77.0000
 30
0.0000
 40
1.1000
  0
CIRCLE
  8
20
 10
106.0000
 20
77.0000
 30
0.0000
 40
1.1000
  0
CIRCLE
  8
20
 10
117.4000
 20
21.7000
 30
0.0000
 40
1.1000
  0
CIRCLE
  8
20
 10
26.1400
 20
5.1600
 30
0.0000
 40
1.1000
  0
LINE
  8
20
 10
27.3000
 20
59.0000
 30
0.0000
 11
40.7000
 21
59.0000
 31
0.0000
  0
ARC
  8
20
 10
40.7000
 20
59.3000
 30
0.0000
 40
0.3000
 50
270.0000
 51
0.0000
  0
LINE
  8
20
 10
41.0000
 20
59.3000
 30
0.0000
 11
41.0000
 21
72.7000
 31
0.0000
  0
ARC
  8
20
 10
40.7000
 20
72.7000
 30
0.0000
 40
0.3000
 50
0.0000
 51
90.0000
  0
LINE
  8
20
 10
40.7000
 20
73.0000
 30
0.0000
 11
27.3000
 21
73.0000
 31
0.0000
  0
ARC
  8
20
 10
27.3000
 20
72.7000
 30
0.0000
 40
0.3000
 50
90.0000
 51
180.0000
  0
LINE
  8
20
 10
27.0000
 20
72.7000
 30
0.0000
 11
27.0000
 21
59.3000
 31
0.0000
  0
ARC
  8
20
 10
27.3000
 20
59.3000
 30
0.0000
 40
0.3000
 50
180.0000
 51
270.0000
  0
LINE
  8
20
 10
27.3000
 20
42.0000
 30
0.0000
 11
40.7000
 21
42.0000
 31
0.0000
  0
ARC
  8
20
 10
40.7000
 20
42.3000
 30
0.0000
 40
0.3000
 50
270.0000
 51
0.0000
  0
LINE
  8
20
 10
41.0000
 20
42.3000
 30
0.0000
 11
41.0000
 21
55.7000
 31
0.0000
  0
ARC
  8
20
 10
40.7000
 20
55.7000
 30
0.0000
 40
0.3000
 50
0.0000
 51
90.0000
  0
LINE
  8
20
 10
40.7000
 20
56.0000
 30
0.0000
 11
27.3000
 21
56.0000
 31
0.0000
  0
ARC
  8
20
 10
27.3000
 20
55.7000
 30
0.0000
 40
0.3000
 50
90.0000
 51
180.0000
  0
LINE
  8
20
 10
27.0000
 20
55.7000
 30
0.0000
 11
27.0000
 21
42.3000
 31
0.0000
  0
ARC
  8
20
 10
27.3000
 20
42.3000
 30
0.0000
 40
0.3000
 50
180.0000
 51
270.0000
  0
LINE
  8
20
 10
27.3000
 20
25.0000
 30
0.0000
 11
40.7000
 21
25.0000
 31
0.0000
  0
ARC
  8
20
 10
40.7000
 20
25.3000
 30
0.0000
 40
0.3000
 50
270.0000
 51
0.0000
  0
LINE
  8
20
 10
41.0000
 20
25.3000
 30
0.0000
 11
41.0000
 21
38.7000
 31
0.0000
  0
ARC
  8
20
 10
40.7000
 20
38.7000
 30
0.0000
 40
0.3000
 50
0.0000
 51
90.0000
  0
LINE
  8
20
 10
40.7000
 20
39.0000
 30
0.0000
 11
27.3000
 21
39.0000
 31
0.0000
  0
ARC
  8
20
 10
27.3000
 20
38.7000
 30
0.0000
 40
0.3000
 50
90.0000
 51
180.0000
  0
LINE
  8
20
 10
27.0000
 20
38.7000
 30
0.0000
 11
27.0000
 21
25.3000
 31
0.0000
  0
ARC
  8
20
 10
27.3000
 20
25.3000
 30
0.0000
 40
0.3000
 50
180.0000
 51
270.0000
  0
LINE
  8
20
 10
88.3560
 20
6.9648
 30
0.0000
 11
101.6256
 21
5.0999
 31
0.0000
  0
ARC
  8
20
 10
101.6674
 20
5.3969
 30
0.0000
 40
0.3000
 50
261.9998
 51
351.9998
  0
LINE
  8
20
 10
101.9644
 20
5.3552
 30
0.0000
 11
103.8294
 21
18.6248
 31
0.0000
  0
ARC
  8
20
 10
103.5323
 20
18.6665
 30
0.0000
 40
0.3000
 50
351.9998
 51
81.9998
  0
LINE
  8
20
 10
103.5740
 20
18.9636
 30
0.0000
 11
90.3044
 21
20.8285
 31
0.0000
  0
ARC
  8
20
 10
90.2627
 20
20.5315
 30
0.0000
 40
0.3000
 50
81.9998
 51
171.9998
  0
LINE
  8
20
 10
89.9656
 20
20.5732
 30
0.0000
 11
88.1007
 21
7.3036
 31
0.0000
  0
ARC
  8
20
 10
88.3978
 20
7.2619
 30
0.0000
 40
0.3000
 50
171.9998
 51
261.9998
  0
LINE
  8
20
 10
45.3000
 20
62.0000
 30
0.0000
 11
58.7000
 21
62.0000
 31
0.0000
  0
ARC
  8
20
 10
58.7000
 20
62.3000
 30
0.0000
 40
0.3000
 50
270.0000
 51
0.0000
  0
LINE
  8
20
 10
59.0000
 20
62.3000
 30
0.0000
 11
59.0000
 21
75.7000
 31
0.0000
  0
ARC
  8
20
 10
58.7000
 20
75.7000
 30
0.0000
 40
0.3000
 50
0.0000
 51
90.0000
  0
LINE
  8
20
 10
58.7000
 20
76.0000
 30
0.0000
 11
45.3000
 21
76.0000
 31
0.0000
  0
ARC
  8
20
 10
45.3000
 20
75.7000
 30
0.0000
 40
0.3000
 50
90.0000
 51
180.0000
  0
LINE
  8
20
 10
45.0000
 20
75.7000
 30
0.0000
 11
45.0000
 21
62.3000
 31
0.0000
  0
ARC
  8
20
 10
45.3000
 20
62.3000
 30
0.0000
 40
0.3000
 50
180.0000
 51
270.0000
  0
LINE
  8
20
 10
45.3000
 20
45.0000
 30
0.0000
 11
58.7000
 21
45.0000
 31
0.0000
  0
ARC
  8
20
 10
58.7000
 20
45.3000
 30
0.0000
 40
0.3000
 50
270.0000
 51
0.0000
  0
LINE
  8
20
 10
59.0000
 20
45.3000
 30
0.0000
 11
59.0000
 21
58.7000
 31
0.0000
  0
ARC
  8
20
 10
58.7000
 20
58.7000
 30
0.0000
 40
0.3000
 50
0.0000
 51
90.0000
  0
LINE
  8
20
 10
58.7000
 20
59.0000
 30
0.0000
 11
45.3000
 21
59.0000
 31
0.0000
  0
ARC
  8
20
 10
45.3000
 20
58.7000
 30
0.0000
 40
0.3000
 50
90.0000
 51
180.0000
  0
LINE
  8
20
 10
45.0000
 20
58.7000
 30
0.0000
 11
45.0000
 21
45.3000
 31
0.0000
  0
ARC
  8
20
 10
45.3000
 20
45.3000
 30
0.0000
 40
0.3000
 50
180.0000
 51
270.0000
  0
LINE
  8
20
 10
45.3000
 20
28.0000
 30
0.0000
 11
58.7000
 21
28.0000
 31
0.0000
  0
ARC
  8
20
 10
58.7000
 20
28.3000
 30
0.0000
 40
0.3000
 50
270.0000
 51
0.0000
  0
LINE
  8
20
 10
59.0000
 20
28.3000
 30
0.0000
 11
59.0000
 21
41.7000
 31
0.0000
  0
ARC
  8
20
 10
58.7000
 20
41.7000
 30
0.0000
 40
0.3000
 50
0.0000
 51
90.0000
  0
LINE
  8
20
 10
58.7000
 20
42.0000
 30
0.0000
 11
45.3000
 21
42.0000
 31
0.0000
  0
ARC
  8
20
 10
45.3000
 20
41.7000
 30
0.0000
 40
0.3000
 50
90.0000
 51
180.0000
  0
LINE
  8
20
 10
45.0000
 20
41.7000
 30
0.0000
 11
45.0000
 21
28.3000
 31
0.0000
  0
ARC
  8
20
 10
45.3000
 20
28.3000
 30
0.0000
 40
0.3000
 50
180.0000
 51
270.0000
  0
LINE
  8
20
 10
63.3000
 20
64.0000
 30
0.0000
 11
76.7000
 21
64.0000
 31
0.0000
  0
ARC
  8
20
 10
76.7000
 20
64.3000
 30
0.0000
 40
0.3000
 50
270.0000
 51
0.0000
  0
LINE
  8
20
 10
77.0000
 20
64.3000
 30
0.0000
 11
77.0000
 21
77.7000
 31
0.0000
  0
ARC
  8
20
 10
76.7000
 20
77.7000
 30
0.0000
 40
0.3000
 50
0.0000
 51
90.0000
  0
LINE
  8
20
 10
76.7000
 20
78.0000
 30
0.0000
 11
63.3000
 21
78.0000
 31
0.0000
  0
ARC
  8
20
 10
63.3000
 20
77.7000
 30
0.0000
 40
0.3000
 50
90.0000
 51
180.0000
  0
LINE
  8
20
 10
63.0000
 20
77.7000
 30
0.0000
 11
63.0000
 21
64.3000
 31
0.0000
  0
ARC
  8
20
 10
63.3000
 20
64.3000
 30
0.0000
 40
0.3000
 50
180.0000
 51
270.0000
  0
LINE
  8
20
 10
63.3000
 20
47.0000
 30
0.0000
 11
76.7000
 21
47.0000
 31
0.0000
  0
ARC
  8
20
 10
76.7000
 20
47.3000
 30
0.0000
 40
0.3000
 50
270.0000
 51
0.0000
  0
LINE
  8
20
 10
77.0000
 20
47.3000
 30
0.0000
 11
77.0000
 21
60.7000
 31
0.0000
  0
ARC
  8
20
 10
76.7000
 20
60.7000
 30
0.0000
 40
0.3000
 50
0.0000
 51
90.0000
  0
LINE
  8
20
 10
76.7000
 20
61.0000
 30
0.0000
 11
63.3000
 21
61.0000
 31
0.0000
  0
ARC
  8
20
 10
63.3000
 20
60.7000
 30
0.0000
 40
0.3000
 50
90.0000
 51
180.0000
  0
LINE
  8
20
 10
63.0000
 20
60.7000
 30
0.0000
 11
63.0000
 21
47.3000
 31
0.0000
  0
ARC
  8
20
 10
63.3000
 20
47.3000
 30
0.0000
 40
0.3000
 50
180.0000
 51
270.0000
  0
LINE
  8
20
 10
63.3000
 20
30.0000
 30
0.0000
 11
76.7000
 21
30.0000
 31
0.0000
  0
ARC
  8
20
 10
76.7000
 20
30.3000
 30
0.0000
 40
0.3000
 50
270.0000
 51
0.0000
  0
LINE
  8
20
 10
77.0000
 20
30.3000
 30
0.0000
 11
77.0000
 21
43.7000
 31
0.0000
  0
ARC
  8
20
 10
76.7000
 20
43.7000
 30
0.0000
 40
0.3000
 50
0.0000
 51
90.0000
  0
LINE
  8
20
 10
76.7000
 20
44.0000
 30
0.0000
 11
63.3000
 21
44.0000
 31
0.0000
  0
ARC
  8
20
 10
63.3000
 20
43.7000
 30
0.0000
 40
0.3000
 50
90.0000
 51
180.0000
  0
LINE
  8
20
 10
63.0000
 20
43.7000
 30
0.0000
 11
63.0000
 21
30.3000
 31
0.0000
  0
ARC
  8
20
 10
63.3000
 20
30.3000
 30
0.0000
 40
0.3000
 50
180.0000
 51
270.0000
  0
LINE
  8
20
 10
70.7182
 20
9.4608
 30
0.0000
 11
83.9878
 21
7.5958
 31
0.0000
  0
ARC
  8
20
 10
84.0295
 20
7.8929
 30
0.0000
 40
0.3000
 50
261.9998
 51
351.9998
  0
LINE
  8
20
 10
84.3266
 20
7.8512
 30
0.0000
 11
86.1915
 21
21.1208
 31
0.0000
  0
ARC
  8
20
 10
85.8944
 20
21.1625
 30
0.0000
 40
0.3000
 50
351.9998
 51
81.9998
  0
LINE
  8
20
 10
85.9362
 20
21.4596
 30
0.0000
 11
72.6666
 21
23.3245
 31
0.0000
  0
ARC
  8
20
 10
72.6248
 20
23.0274
 30
0.0000
 40
0.3000
 50
81.9998
 51
171.9998
  0
LINE
  8
20
 10
72.3278
 20
23.0692
 30
0.0000
 11
70.4628
 21
9.7996
 31
0.0000
  0
ARC
  8
20
 10
70.7599
 20
9.7578
 30
0.0000
 40
0.3000
 50
171.9998
 51
261.9998
  0
LINE
  8
20
 10
81.3000
 20
62.0000
 30
0.0000
 11
94.7000
 21
62.0000
 31
0.0000
  0
ARC
  8
20
 10
94.7000
 20
62.3000
 30
0.0000
 40
0.3000
 50
270.0000
 51
0.0000
  0
LINE
  8
20
 10
95.0000
 20
62.3000
 30
0.0000
 11
95.0000
 21
75.7000
 31
0.0000
  0
ARC
  8
20
 10
94.7000
 20
75.7000
 30
0.0000
 40
0.3000
 50
0.0000
 51
90.0000
  0
LINE
  8
20
 10
94.7000
 20
76.0000
 30
0.0000
 11
81.3000
 21
76.0000
 31
0.0000
  0
ARC
  8
20
 10
81.3000
 20
75.7000
 30
0.0000
 40
0.3000
 50
90.0000
 51
180.0000
  0
LINE
  8
20
 10
81.0000
 20
75.7000
 30
0.0000
 11
81.0000
 21
62.3000
 31
0.0000
  0
ARC
  8
20
 10
81.3000
 20
62.3000
 30
0.0000
 40
0.3000
 50
180.0000
 51
270.0000
  0
LINE
  8
20
 10
81.3000
 20
45.0000
 30
0.0000
 11
94.7000
 21
45.0000
 31
0.0000
  0
ARC
  8
20
 10
94.7000
 20
45.3000
 30
0.0000
 40
0.3000
 50
270.0000
 51
0.0000
  0
LINE
  8
20
 10
95.0000
 20
45.3000
 30
0.0000
 11
95.0000
 21
58.7000
 31
0.0000
  0
ARC
  8
20
 10
94.7000
 20
58.7000
 30
0.0000
 40
0.3000
 50
0.0000
 51
90.0000
  0
LINE
  8
20
 10
94.7000
 20
59.0000
 30
0.0000
 11
81.3000
 21
59.0000
 31
0.0000
  0
ARC
  8
20
 10
81.3000
 20
58.7000
 30
0.0000
 40
0.3000
 50
90.0000
 51
180.0000
  0
LINE
  8
20
 10
81.0000
 20
58.7000
 30
0.0000
 11
81.0000
 21
45.3000
 31
0.0000
  0
ARC
  8
20
 10
81.3000
 20
45.3000
 30
0.0000
 40
0.3000
 50
180.0000
 51
270.0000
  0
LINE
  8
20
 10
81.3000
 20
28.0000
 30
0.0000
 11
94.7000
 21
28.0000
 31
0.0000
  0
ARC
  8
20
 10
94.7000
 20
28.3000
 30
0.0000
 40
0.3000
 50
270.0000
 51
0.0000
  0
LINE
  8
20
 10
95.0000
 20
28.3000
 30
0.0000
 11
95.0000
 21
41.7000
 31
0.0000
  0
ARC
  8
20
 10
94.7000
 20
41.7000
 30
0.0000
 40
0.3000
 50
0.0000
 51
90.0000
  0
LINE
  8
20
 10
94.7000
 20
42.0000
 30
0.0000
 11
81.3000
 21
42.0000
 31
0.0000
  0
ARC
  8
20
 10
81.3000
 20
41.7000
 30
0.0000
 40
0.3000
 50
90.0000
 51
180.0000
  0
LINE
  8
20
 10
81.0000
 20
41.7000
 30
0.0000
 11
81.0000
 21
28.3000
 31
0.0000
  0
ARC
  8
20
 10
81.3000
 20
28.3000
 30
0.0000
 40
0.3000
 50
180.0000
 51
270.0000
  0
LINE
  8
20
 10
99.3000
 20
59.0000
 30
0.0000
 11
112.7000
 21
59.0000
 31
0.0000
  0
ARC
  8
20
 10
112.7000
 20
59.3000
 30
0.0000
 40
0.3000
 50
270.0000
 51
0.0000
  0
LINE
  8
20
 10
113.0000
 20
59.3000
 30
0.0000
 11
113.0000
 21
72.7000
 31
0.0000
  0
ARC
  8
20
 10
112.7000
 20
72.7000
 30
0.0000
 40
0.3000
 50
0.0000
 51
90.0000
  0
LINE
  8
20
 10
112.7000
 20
73.0000
 30
0.0000
 11
99.3000
 21
73.0000
 31
0.0000
  0
ARC
  8
20
 10
99.3000
 20
72.7000
 30
0.0000
 40
0.3000
 50
90.0000
 51
180.0000
  0
LINE
  8
20
 10
99.0000
 20
72.7000
 30
0.0000
 11
99.0000
 21
59.3000
 31
0.0000
  0
ARC
  8
20
 10
99.3000
 20
59.3000
 30
0.0000
 40
0.3000
 50
180.0000
 51
270.0000
  0
LINE
  8
20
 10
99.3000
 20
42.0000
 30
0.0000
 11
112.7000
 21
42.0000
 31
0.0000
  0
ARC
  8
20
 10
112.7000
 20
42.3000
 30
0.0000
 40
0.3000
 50
270.0000
 51
0.0000
  0
LINE
  8
20
 10
113.0000
 20
42.3000
 30
0.0000
 11
113.0000
 21
55.7000
 31
0.0000
  0
ARC
  8
20
 10
112.7000
 20
55.7000
 30
0.0000
 40
0.3000
 50
0.0000
 51
90.0000
  0
LINE
  8
20
 10
112.7000
 20
56.0000
 30
0.0000
 11
99.3000
 21
56.0000
 31
0.0000
  0
ARC
  8
20
 10
99.3000
 20
55.7000
 30
0.0000
 40
0.3000
 50
90.0000
 51
180.0000
  0
LINE
  8
20
 10
99.0000
 20
55.7000
 30
0.0000
 11
99.0000
 21
42.3000
 31
0.0000
  0
ARC
  8
20
 10
99.3000
 20
42.3000
 30
0.0000
 40
0.3000
 50
180.0000
 51
270.0000
  0
LINE
  8
20
 10
99.3000
 20
25.0000
 30
0.0000
 11
112.7000
 21
25.0000
 31
0.0000
  0
ARC
  8
20
 10
112.7000
 20
25.3000
 30
0.0000
 40
0.3000
 50
270.0000
 51
0.0000
  0
LINE
  8
20
 10
113.0000
 20
25.3000
 30
0.0000
 11
113.0000
 21
38.7000
 31
0.0000
  0
ARC
  8
20
 10
112.7000
 20
38.7000
 30
0.0000
 40
0.3000
 50
0.0000
 51
90.0000
  0
LINE
  8
20
 10
112.7000
 20
39.0000
 30
0.0000
 11
99.3000
 21
39.0000
 31
0.0000
  0
ARC
  8
20
 10
99.3000
 20
38.7000
 30
0.0000
 40
0.3000
 50
90.0000
 51
180.0000
  0
LINE
  8
20
 10
99.0000
 20
38.7000
 30
0.0000
 11
99.0000
 21
25.3000
 31
0.0000
  0
ARC
  8
20
 10
99.3000
 20
25.3000
 30
0.0000
 40
0.3000
 50
180.0000
 51
270.0000
  0
LINE
  8
20
 10
106.0332
 20
4.4902
 30
0.0000
 11
119.3027
 21
2.6253
 31
0.0000
  0
ARC
  8
20
 10
119.3445
 20
2.9224
 30
0.0000
 40
0.3000
 50
261.9998
 51
351.9998
  0
LINE
  8
20
 10
119.6416
 20
2.8806
 30
0.0000
 11
121.5065
 21
16.1502
 31
0.0000
  0
ARC
  8
20
 10
121.2094
 20
16.1920
 30
0.0000
 40
0.3000
 50
351.9998
 51
81.9998
  0
LINE
  8
20
 10
121.2512
 20
16.4890
 30
0.0000
 11
107.9816
 21
18.3540
 31
0.0000
  0
ARC
  8
20
 10
107.9398
 20
18.0569
 30
0.0000
 40
0.3000
 50
81.9998
 51
171.9998
  0
LINE
  8
20
 10
107.6427
 20
18.0986
 30
0.0000
 11
105.7778
 21
4.8290
 31
0.0000
  0
ARC
  8
20
 10
106.0749
 20
4.7873
 30
0.0000
 40
0.3000
 50
171.9998
 51
261.9998
  0
ENDSEC
  0
EOF
