  0
SECTION
  2
HEADER
  9
$ACADVER
  1
AC1009
  9
$FILLMODE
 70
1
  9
$EXTMIN
 10
-126.0000
 20
-7.0000
 30
0.0000
  9
$EXTMAX
 10
126.0000
 20
76.0000
 30
0.0000
  0
ENDSEC
  0
SECTION
  2
TABLES
  0
TABLE
  2
LTYPE
 70
1
  0
LTYPE
  2
CONTINUOUS
 70
64
  3
Solid line
 72
65
 73
0
 40
0
  0
ENDTAB
  0
TABLE
  2
LAYER
 70
255
  0
LAYER
  2
17
 70
64
 62
110
  6
CONTINUOUS
  0
LAYER
  2
18
 70
64
 62
110
  6
CONTINUOUS
  0
LAYER
  2
19
 70
64
 62
53
  6
CONTINUOUS
  0
LAYER
  2
20
 70
64
 62
31
  6
CONTINUOUS
  0
LAYER
  2
25
 70
64
 62
253
  6
CONTINUOUS
  0
LAYER
  2
26
 70
64
 62
253
  6
CONTINUOUS
  0
LAYER
  2
27
 70
64
 62
253
  6
CONTINUOUS
  0
LAYER
  2
28
 70
64
 62
253
  6
CONTINUOUS
  0
LAYER
  2
39
 70
64
 62
12
  6
CONTINUOUS
  0
LAYER
  2
40
 70
64
 62
132
  6
CONTINUOUS
  0
LAYER
  2
41
 70
64
 62
12
  6
CONTINUOUS
  0
LAYER
  2
42
 70
64
 62
132
  6
CONTINUOUS
  0
LAYER
  2
43
 70
64
 62
110
  6
CONTINUOUS
  0
LAYER
  2
47
 70
64
 62
2
  6
CONTINUOUS
  0
LAYER
  2
48
 70
64
 62
253
  6
CONTINUOUS
  0
LAYER
  2
49
 70
64
 62
253
  6
CONTINUOUS
  0
LAYER
  2
51
 70
64
 62
41
  6
CONTINUOUS
  0
LAYER
  2
52
 70
64
 62
132
  6
CONTINUOUS
  0
LAYER
  2
101
 70
64
 62
1
  6
CONTINUOUS
  0
LAYER
  2
102
 70
64
 62
253
  6
CONTINUOUS
  0
LAYER
  2
103
 70
64
 62
253
  6
CONTINUOUS
  0
LAYER
  2
104
 70
64
 62
41
  6
CONTINUOUS
  0
LAYER
  2
105
 70
64
 62
253
  6
CONTINUOUS
  0
LAYER
  2
106
 70
64
 62
253
  6
CONTINUOUS
  0
LAYER
  2
107
 70
64
 62
253
  6
CONTINUOUS
  0
LAYER
  2
108
 70
64
 62
3
  6
CONTINUOUS
  0
LAYER
  2
109
 70
64
 62
4
  6
CONTINUOUS
  0
LAYER
  2
110
 70
64
 62
253
  6
CONTINUOUS
  0
LAYER
  2
111
 70
64
 62
253
  6
CONTINUOUS
  0
LAYER
  2
112
 70
64
 62
253
  6
CONTINUOUS
  0
LAYER
  2
113
 70
64
 62
253
  6
CONTINUOUS
  0
LAYER
  2
114
 70
64
 62
253
  6
CONTINUOUS
  0
LAYER
  2
115
 70
64
 62
253
  6
CONTINUOUS
  0
LAYER
  2
116
 70
64
 62
5
  6
CONTINUOUS
  0
LAYER
  2
117
 70
64
 62
253
  6
CONTINUOUS
  0
LAYER
  2
118
 70
64
 62
253
  6
CONTINUOUS
  0
LAYER
  2
119
 70
64
 62
253
  6
CONTINUOUS
  0
LAYER
  2
120
 70
64
 62
253
  6
CONTINUOUS
  0
LAYER
  2
121
 70
64
 62
253
  6
CONTINUOUS
  0
LAYER
  2
122
 70
64
 62
253
  6
CONTINUOUS
  0
LAYER
  2
123
 70
64
 62
253
  6
CONTINUOUS
  0
LAYER
  2
124
 70
64
 62
253
  6
CONTINUOUS
  0
LAYER
  2
125
 70
64
 62
253
  6
CONTINUOUS
  0
LAYER
  2
126
 70
64
 62
253
  6
CONTINUOUS
  0
LAYER
  2
127
 70
64
 62
253
  6
CONTINUOUS
  0
LAYER
  2
128
 70
64
 62
253
  6
CONTINUOUS
  0
LAYER
  2
129
 70
64
 62
253
  6
CONTINUOUS
  0
LAYER
  2
130
 70
64
 62
253
  6
CONTINUOUS
  0
LAYER
  2
131
 70
64
 62
253
  6
CONTINUOUS
  0
LAYER
  2
132
 70
64
 62
253
  6
CONTINUOUS
  0
LAYER
  2
133
 70
64
 62
253
  6
CONTINUOUS
  0
LAYER
  2
136
 70
64
 62
132
  6
CONTINUOUS
  0
LAYER
  2
137
 70
64
 62
253
  6
CONTINUOUS
  0
LAYER
  2
144
 70
64
 62
253
  6
CONTINUOUS
  0
LAYER
  2
145
 70
64
 62
253
  6
CONTINUOUS
  0
LAYER
  2
146
 70
64
 62
253
  6
CONTINUOUS
  0
LAYER
  2
150
 70
64
 62
253
  6
CONTINUOUS
  0
LAYER
  2
151
 70
64
 62
253
  6
CONTINUOUS
  0
LAYER
  2
152
 70
64
 62
253
  6
CONTINUOUS
  0
LAYER
  2
199
 70
64
 62
253
  6
CONTINUOUS
  0
LAYER
  2
200
 70
64
 62
132
  6
CONTINUOUS
  0
LAYER
  2
201
 70
64
 62
110
  6
CONTINUOUS
  0
LAYER
  2
202
 70
64
 62
140
  6
CONTINUOUS
  0
LAYER
  2
203
 70
64
 62
12
  6
CONTINUOUS
  0
LAYER
  2
204
 70
64
 62
40
  6
CONTINUOUS
  0
LAYER
  2
205
 70
64
 62
53
  6
CONTINUOUS
  0
LAYER
  2
206
 70
64
 62
253
  6
CONTINUOUS
  0
LAYER
  2
207
 70
64
 62
59
  6
CONTINUOUS
  0
LAYER
  2
208
 70
64
 62
5
  6
CONTINUOUS
  0
LAYER
  2
209
 70
64
 62
253
  6
CONTINUOUS
  0
LAYER
  2
210
 70
64
 62
253
  6
CONTINUOUS
  0
LAYER
  2
211
 70
64
 62
253
  6
CONTINUOUS
  0
LAYER
  2
212
 70
64
 62
253
  6
CONTINUOUS
  0
LAYER
  2
213
 70
64
 62
253
  6
CONTINUOUS
  0
LAYER
  2
214
 70
64
 62
253
  6
CONTINUOUS
  0
LAYER
  2
215
 70
64
 62
253
  6
CONTINUOUS
  0
LAYER
  2
216
 70
64
 62
253
  6
CONTINUOUS
  0
LAYER
  2
225
 70
64
 62
253
  6
CONTINUOUS
  0
LAYER
  2
226
 70
64
 62
253
  6
CONTINUOUS
  0
LAYER
  2
227
 70
64
 62
253
  6
CONTINUOUS
  0
LAYER
  2
228
 70
64
 62
253
  6
CONTINUOUS
  0
LAYER
  2
229
 70
64
 62
253
  6
CONTINUOUS
  0
LAYER
  2
230
 70
64
 62
253
  6
CONTINUOUS
  0
LAYER
  2
231
 70
64
 62
253
  6
CONTINUOUS
  0
LAYER
  2
248
 70
64
 62
253
  6
CONTINUOUS
  0
LAYER
  2
249
 70
64
 62
253
  6
CONTINUOUS
  0
LAYER
  2
253
 70
64
 62
253
  6
CONTINUOUS
  0
LAYER
  2
254
 70
64
 62
253
  6
CONTINUOUS
  0
LAYER
  2
255
 70
64
 62
253
  6
CONTINUOUS
  0
ENDTAB
  0
ENDSEC
  0
SECTION
  2
BLOCKS
  0
BLOCK
  8
0
  2
RECT
 70
64
 10
0.0000
 20
0.0000
 30
0.0000
  3
RECT
  0
SOLID
  8
0
 10
-0.5000
 20
-0.5000
 30
0.0000
 11
0.5000
 21
-0.5000
 31
0.0000
 12
-0.5000
 22
0.5000
 32
0.0000
 13
0.5000
 23
0.5000
 33
0.0000
  0
ENDBLK
  8
0
  0
BLOCK
  8
0
  2
PIE
 70
64
 10
0.0000
 20
0.0000
 30
0.0000
  3
PIE
  0
POLYLINE
  8
0
 66
1
 10
0.0000
 20
0.0000
 30
0.0000
 40
0.5000
 41
0.5000
 70
0
  0
VERTEX
  8
0
 10
0.0000
 20
-0.2500
 30
0.0000
 42
1.0000
  0
VERTEX
  8
0
 10
0.0000
 20
0.2500
 30
0.0000
 42
1.0000
  0
VERTEX
  8
0
 10
0.0000
 20
-0.2500
 30
0.0000
  0
SEQEND
  8
0
  0
ENDBLK
  8
0
  0
BLOCK
  8
0
  2
OCTAGONP
 70
64
 10
0.0000
 20
0.0000
 30
0.0000
  3
OCTAGONP
  0
POLYLINE
  8
0
 66
1
 10
0.0000
 20
0.0000
 30
0.0000
 40
0.5000
 41
0.5000
 70
0
  0
VERTEX
  8
0
 10
-0.2500
 20
-0.1036
 30
0.0000
  0
VERTEX
  8
0
 10
-0.2500
 20
0.1036
 30
0.0000
  0
VERTEX
  8
0
 10
-0.1036
 20
0.2500
 30
0.0000
  0
VERTEX
  8
0
 10
0.1036
 20
0.2500
 30
0.0000
  0
VERTEX
  8
0
 10
0.2500
 20
0.1036
 30
0.0000
  0
VERTEX
  8
0
 10
0.2500
 20
-0.1036
 30
0.0000
  0
VERTEX
  8
0
 10
0.1036
 20
-0.2500
 30
0.0000
  0
VERTEX
  8
0
 10
-0.1036
 20
-0.2500
 30
0.0000
  0
VERTEX
  8
0
 10
-0.2500
 20
-0.1036
 30
0.0000
  0
VERTEX
  8
0
 10
-0.2500
 20
0.1036
 30
0.0000
  0
SEQEND
  8
0
  0
ENDBLK
  8
0
  0
BLOCK
  8
0
  2
SQUAREP
 70
64
 10
0.0000
 20
0.0000
 30
0.0000
  3
SQUAREP
  0
SOLID
  8
0
 10
-0.5000
 20
-0.5000
 30
0.0000
 11
0.5000
 21
-0.5000
 31
0.0000
 12
-0.5000
 22
0.5000
 32
0.0000
 13
0.5000
 23
0.5000
 33
0.0000
  0
ENDBLK
  8
0
  0
BLOCK
  8
0
  2
ROUNDP
 70
64
 10
0.0000
 20
0.0000
 30
0.0000
  3
ROUNDP
  0
POLYLINE
  8
0
 66
1
 10
0.0000
 20
0.0000
 30
0.0000
 40
0.5000
 41
0.5000
 70
0
  0
VERTEX
  8
0
 10
0.0000
 20
-0.2500
 30
0.0000
 42
1.0000
  0
VERTEX
  8
0
 10
0.0000
 20
0.2500
 30
0.0000
 42
1.0000
  0
VERTEX
  8
0
 10
0.0000
 20
-0.2500
 30
0.0000
  0
SEQEND
  8
0
  0
ENDBLK
  8
0
  0
BLOCK
  8
0
  2
ANNULUSP
 70
64
 10
0.0000
 20
0.0000
 30
0.0000
  3
ANNULUSP
  0
POLYLINE
  8
0
 66
1
 10
0.0000
 20
0.0000
 30
0.0000
 40
0.5000
 41
0.5000
 70
0
  0
VERTEX
  8
0
 10
0.0000
 20
-0.2500
 30
0.0000
 42
1.0000
  0
VERTEX
  8
0
 10
0.0000
 20
0.2500
 30
0.0000
 42
1.0000
  0
VERTEX
  8
0
 10
0.0000
 20
-0.2500
 30
0.0000
  0
SEQEND
  8
0
  0
ENDBLK
  8
0
  0
BLOCK
  8
0
  2
THERMALP
 70
64
 10
0.0000
 20
0.0000
 30
0.0000
  3
THERMALP
  0
POLYLINE
  8
0
 66
1
 10
0.0000
 20
0.0000
 30
0.0000
 40
0.1000
 41
0.1000
 70
0
  0
VERTEX
  8
0
 10
-0.2379
 20
0.4500
 30
0.0000
  0
VERTEX
  8
0
 10
0.2379
 20
0.4500
 30
0.0000
  0
SEQEND
  8
0
  0
POLYLINE
  8
0
 66
1
 10
0.0000
 20
0.0000
 30
0.0000
 40
0.0500
 41
0.0500
 70
0
  0
VERTEX
  8
0
 10
0.2379
 20
0.4250
 30
0.0000
 42
1.0000
  0
VERTEX
  8
0
 10
0.2379
 20
0.4750
 30
0.0000
  0
SEQEND
  8
0
  0
POLYLINE
  8
0
 66
1
 10
0.0000
 20
0.0000
 30
0.0000
 40
0.0500
 41
0.0500
 70
0
  0
VERTEX
  8
0
 10
-0.2379
 20
0.4750
 30
0.0000
 42
1.0000
  0
VERTEX
  8
0
 10
-0.2379
 20
0.4250
 30
0.0000
  0
SEQEND
  8
0
  0
POLYLINE
  8
0
 66
1
 10
0.0000
 20
0.0000
 30
0.0000
 40
0.1000
 41
0.1000
 70
0
  0
VERTEX
  8
0
 10
0.4500
 20
0.2379
 30
0.0000
  0
VERTEX
  8
0
 10
0.4500
 20
-0.2379
 30
0.0000
  0
SEQEND
  8
0
  0
POLYLINE
  8
0
 66
1
 10
0.0000
 20
0.0000
 30
0.0000
 40
0.0500
 41
0.0500
 70
0
  0
VERTEX
  8
0
 10
0.4250
 20
-0.2379
 30
0.0000
 42
1.0000
  0
VERTEX
  8
0
 10
0.4750
 20
-0.2379
 30
0.0000
  0
SEQEND
  8
0
  0
POLYLINE
  8
0
 66
1
 10
0.0000
 20
0.0000
 30
0.0000
 40
0.0500
 41
0.0500
 70
0
  0
VERTEX
  8
0
 10
0.4750
 20
0.2379
 30
0.0000
 42
1.0000
  0
VERTEX
  8
0
 10
0.4250
 20
0.2379
 30
0.0000
  0
SEQEND
  8
0
  0
POLYLINE
  8
0
 66
1
 10
0.0000
 20
0.0000
 30
0.0000
 40
0.1000
 41
0.1000
 70
0
  0
VERTEX
  8
0
 10
0.2379
 20
-0.4500
 30
0.0000
  0
VERTEX
  8
0
 10
-0.2379
 20
-0.4500
 30
0.0000
  0
SEQEND
  8
0
  0
POLYLINE
  8
0
 66
1
 10
0.0000
 20
0.0000
 30
0.0000
 40
0.0500
 41
0.0500
 70
0
  0
VERTEX
  8
0
 10
-0.2379
 20
-0.4250
 30
0.0000
 42
1.0000
  0
VERTEX
  8
0
 10
-0.2379
 20
-0.4750
 30
0.0000
  0
SEQEND
  8
0
  0
POLYLINE
  8
0
 66
1
 10
0.0000
 20
0.0000
 30
0.0000
 40
0.0500
 41
0.0500
 70
0
  0
VERTEX
  8
0
 10
0.2379
 20
-0.4750
 30
0.0000
 42
1.0000
  0
VERTEX
  8
0
 10
0.2379
 20
-0.4250
 30
0.0000
  0
SEQEND
  8
0
  0
POLYLINE
  8
0
 66
1
 10
0.0000
 20
0.0000
 30
0.0000
 40
0.1000
 41
0.1000
 70
0
  0
VERTEX
  8
0
 10
-0.4500
 20
-0.2379
 30
0.0000
  0
VERTEX
  8
0
 10
-0.4500
 20
0.2379
 30
0.0000
  0
SEQEND
  8
0
  0
POLYLINE
  8
0
 66
1
 10
0.0000
 20
0.0000
 30
0.0000
 40
0.0500
 41
0.0500
 70
0
  0
VERTEX
  8
0
 10
-0.4250
 20
0.2379
 30
0.0000
 42
1.0000
  0
VERTEX
  8
0
 10
-0.4750
 20
0.2379
 30
0.0000
  0
SEQEND
  8
0
  0
POLYLINE
  8
0
 66
1
 10
0.0000
 20
0.0000
 30
0.0000
 40
0.0500
 41
0.0500
 70
0
  0
VERTEX
  8
0
 10
-0.4750
 20
-0.2379
 30
0.0000
 42
1.0000
  0
VERTEX
  8
0
 10
-0.4250
 20
-0.2379
 30
0.0000
  0
SEQEND
  8
0
  0
ENDBLK
  8
0
  0
BLOCK
  8
0
  2
OCTAGONV
 70
64
 10
0.0000
 20
0.0000
 30
0.0000
  3
OCTAGONV
  0
POLYLINE
  8
0
 66
1
 10
0.0000
 20
0.0000
 30
0.0000
 40
0.5000
 41
0.5000
 70
0
  0
VERTEX
  8
0
 10
-0.2500
 20
-0.1036
 30
0.0000
  0
VERTEX
  8
0
 10
-0.2500
 20
0.1036
 30
0.0000
  0
VERTEX
  8
0
 10
-0.1036
 20
0.2500
 30
0.0000
  0
VERTEX
  8
0
 10
0.1036
 20
0.2500
 30
0.0000
  0
VERTEX
  8
0
 10
0.2500
 20
0.1036
 30
0.0000
  0
VERTEX
  8
0
 10
0.2500
 20
-0.1036
 30
0.0000
  0
VERTEX
  8
0
 10
0.1036
 20
-0.2500
 30
0.0000
  0
VERTEX
  8
0
 10
-0.1036
 20
-0.2500
 30
0.0000
  0
VERTEX
  8
0
 10
-0.2500
 20
-0.1036
 30
0.0000
  0
VERTEX
  8
0
 10
-0.2500
 20
0.1036
 30
0.0000
  0
SEQEND
  8
0
  0
ENDBLK
  8
0
  0
BLOCK
  8
0
  2
SQUAREV
 70
64
 10
0.0000
 20
0.0000
 30
0.0000
  3
SQUAREV
  0
SOLID
  8
0
 10
-0.5000
 20
-0.5000
 30
0.0000
 11
0.5000
 21
-0.5000
 31
0.0000
 12
-0.5000
 22
0.5000
 32
0.0000
 13
0.5000
 23
0.5000
 33
0.0000
  0
ENDBLK
  8
0
  0
BLOCK
  8
0
  2
ROUNDV
 70
64
 10
0.0000
 20
0.0000
 30
0.0000
  3
ROUNDV
  0
POLYLINE
  8
0
 66
1
 10
0.0000
 20
0.0000
 30
0.0000
 40
0.5000
 41
0.5000
 70
0
  0
VERTEX
  8
0
 10
0.0000
 20
-0.2500
 30
0.0000
 42
1.0000
  0
VERTEX
  8
0
 10
0.0000
 20
0.2500
 30
0.0000
 42
1.0000
  0
VERTEX
  8
0
 10
0.0000
 20
-0.2500
 30
0.0000
  0
SEQEND
  8
0
  0
ENDBLK
  8
0
  0
BLOCK
  8
0
  2
ANNULUSV
 70
64
 10
0.0000
 20
0.0000
 30
0.0000
  3
ANNULUSV
  0
POLYLINE
  8
0
 66
1
 10
0.0000
 20
0.0000
 30
0.0000
 40
0.5000
 41
0.5000
 70
0
  0
VERTEX
  8
0
 10
0.0000
 20
-0.2500
 30
0.0000
 42
1.0000
  0
VERTEX
  8
0
 10
0.0000
 20
0.2500
 30
0.0000
 42
1.0000
  0
VERTEX
  8
0
 10
0.0000
 20
-0.2500
 30
0.0000
  0
SEQEND
  8
0
  0
ENDBLK
  8
0
  0
BLOCK
  8
0
  2
THERMALV
 70
64
 10
0.0000
 20
0.0000
 30
0.0000
  3
THERMALV
  0
POLYLINE
  8
0
 66
1
 10
0.0000
 20
0.0000
 30
0.0000
 40
0.1000
 41
0.1000
 70
0
  0
VERTEX
  8
0
 10
-0.2379
 20
0.4500
 30
0.0000
  0
VERTEX
  8
0
 10
0.2379
 20
0.4500
 30
0.0000
  0
SEQEND
  8
0
  0
POLYLINE
  8
0
 66
1
 10
0.0000
 20
0.0000
 30
0.0000
 40
0.0500
 41
0.0500
 70
0
  0
VERTEX
  8
0
 10
0.2379
 20
0.4250
 30
0.0000
 42
1.0000
  0
VERTEX
  8
0
 10
0.2379
 20
0.4750
 30
0.0000
  0
SEQEND
  8
0
  0
POLYLINE
  8
0
 66
1
 10
0.0000
 20
0.0000
 30
0.0000
 40
0.0500
 41
0.0500
 70
0
  0
VERTEX
  8
0
 10
-0.2379
 20
0.4750
 30
0.0000
 42
1.0000
  0
VERTEX
  8
0
 10
-0.2379
 20
0.4250
 30
0.0000
  0
SEQEND
  8
0
  0
POLYLINE
  8
0
 66
1
 10
0.0000
 20
0.0000
 30
0.0000
 40
0.1000
 41
0.1000
 70
0
  0
VERTEX
  8
0
 10
0.4500
 20
0.2379
 30
0.0000
  0
VERTEX
  8
0
 10
0.4500
 20
-0.2379
 30
0.0000
  0
SEQEND
  8
0
  0
POLYLINE
  8
0
 66
1
 10
0.0000
 20
0.0000
 30
0.0000
 40
0.0500
 41
0.0500
 70
0
  0
VERTEX
  8
0
 10
0.4250
 20
-0.2379
 30
0.0000
 42
1.0000
  0
VERTEX
  8
0
 10
0.4750
 20
-0.2379
 30
0.0000
  0
SEQEND
  8
0
  0
POLYLINE
  8
0
 66
1
 10
0.0000
 20
0.0000
 30
0.0000
 40
0.0500
 41
0.0500
 70
0
  0
VERTEX
  8
0
 10
0.4750
 20
0.2379
 30
0.0000
 42
1.0000
  0
VERTEX
  8
0
 10
0.4250
 20
0.2379
 30
0.0000
  0
SEQEND
  8
0
  0
POLYLINE
  8
0
 66
1
 10
0.0000
 20
0.0000
 30
0.0000
 40
0.1000
 41
0.1000
 70
0
  0
VERTEX
  8
0
 10
0.2379
 20
-0.4500
 30
0.0000
  0
VERTEX
  8
0
 10
-0.2379
 20
-0.4500
 30
0.0000
  0
SEQEND
  8
0
  0
POLYLINE
  8
0
 66
1
 10
0.0000
 20
0.0000
 30
0.0000
 40
0.0500
 41
0.0500
 70
0
  0
VERTEX
  8
0
 10
-0.2379
 20
-0.4250
 30
0.0000
 42
1.0000
  0
VERTEX
  8
0
 10
-0.2379
 20
-0.4750
 30
0.0000
  0
SEQEND
  8
0
  0
POLYLINE
  8
0
 66
1
 10
0.0000
 20
0.0000
 30
0.0000
 40
0.0500
 41
0.0500
 70
0
  0
VERTEX
  8
0
 10
0.2379
 20
-0.4750
 30
0.0000
 42
1.0000
  0
VERTEX
  8
0
 10
0.2379
 20
-0.4250
 30
0.0000
  0
SEQEND
  8
0
  0
POLYLINE
  8
0
 66
1
 10
0.0000
 20
0.0000
 30
0.0000
 40
0.1000
 41
0.1000
 70
0
  0
VERTEX
  8
0
 10
-0.4500
 20
-0.2379
 30
0.0000
  0
VERTEX
  8
0
 10
-0.4500
 20
0.2379
 30
0.0000
  0
SEQEND
  8
0
  0
POLYLINE
  8
0
 66
1
 10
0.0000
 20
0.0000
 30
0.0000
 40
0.0500
 41
0.0500
 70
0
  0
VERTEX
  8
0
 10
-0.4250
 20
0.2379
 30
0.0000
 42
1.0000
  0
VERTEX
  8
0
 10
-0.4750
 20
0.2379
 30
0.0000
  0
SEQEND
  8
0
  0
POLYLINE
  8
0
 66
1
 10
0.0000
 20
0.0000
 30
0.0000
 40
0.0500
 41
0.0500
 70
0
  0
VERTEX
  8
0
 10
-0.4750
 20
-0.2379
 30
0.0000
 42
1.0000
  0
VERTEX
  8
0
 10
-0.4250
 20
-0.2379
 30
0.0000
  0
SEQEND
  8
0
  0
ENDBLK
  8
0
  0
ENDSEC
  0
SECTION
  2
ENTITIES
  0
LINE
  8
20
 10
-82.4142
 20
16.4142
 30
0.0000
 11
-59.5858
 21
-6.4142
 31
0.0000
  0
ARC
  8
20
 10
-58.1716
 20
-5.0000
 30
0.0000
 40
2.0000
 50
224.9999
 51
270.0000
  0
LINE
  8
20
 10
-58.1716
 20
-7.0000
 30
0.0000
 11
58.1716
 21
-7.0000
 31
0.0000
  0
ARC
  8
20
 10
58.1716
 20
-5.0000
 30
0.0000
 40
2.0000
 50
270.0000
 51
315.0000
  0
LINE
  8
20
 10
59.5858
 20
-6.4142
 30
0.0000
 11
83.0000
 21
17.0000
 31
0.0000
  0
ARC
  8
20
 10
-83.8284
 20
15.0000
 30
0.0000
 40
2.0000
 50
44.9999
 51
90.0000
  0
LINE
  8
20
 10
-83.8284
 20
17.0000
 30
0.0000
 11
-124.0000
 21
17.0000
 31
0.0000
  0
LINE
  8
20
 10
83.0000
 20
17.0000
 30
0.0000
 11
124.0000
 21
17.0000
 31
0.0000
  0
ARC
  8
20
 10
124.0000
 20
19.0000
 30
0.0000
 40
2.0000
 50
270.0000
 51
0.0000
  0
LINE
  8
20
 10
126.0000
 20
19.0000
 30
0.0000
 11
126.0000
 21
74.0000
 31
0.0000
  0
ARC
  8
20
 10
124.0000
 20
74.0000
 30
0.0000
 40
2.0000
 50
0.0000
 51
90.0000
  0
LINE
  8
20
 10
124.0000
 20
76.0000
 30
0.0000
 11
-124.0000
 21
76.0000
 31
0.0000
  0
ARC
  8
20
 10
-124.0000
 20
74.0000
 30
0.0000
 40
2.0000
 50
90.0000
 51
180.0000
  0
ARC
  8
20
 10
-124.0000
 20
19.0000
 30
0.0000
 40
2.0000
 50
180.0000
 51
270.0000
  0
LINE
  8
20
 10
-126.0000
 20
19.0000
 30
0.0000
 11
-126.0000
 21
74.0000
 31
0.0000
  0
LINE
  8
20
 10
-16.0000
 20
8.7000
 30
0.0000
 11
16.0000
 21
8.7000
 31
0.0000
  0
LINE
  8
20
 10
16.0000
 20
8.7000
 30
0.0000
 11
16.0000
 21
-5.3000
 31
0.0000
  0
LINE
  8
20
 10
16.0000
 20
-5.3000
 30
0.0000
 11
-16.0000
 21
-5.3000
 31
0.0000
  0
LINE
  8
20
 10
-16.0000
 20
-5.3000
 30
0.0000
 11
-16.0000
 21
8.7000
 31
0.0000
  0
LINE
  8
20
 10
-6.5000
 20
24.5000
 30
0.0000
 11
6.5000
 21
24.5000
 31
0.0000
  0
LINE
  8
20
 10
6.5000
 20
24.5000
 30
0.0000
 11
6.5000
 21
11.5000
 31
0.0000
  0
LINE
  8
20
 10
6.5000
 20
11.5000
 30
0.0000
 11
-6.5000
 21
11.5000
 31
0.0000
  0
LINE
  8
20
 10
-6.5000
 20
11.5000
 30
0.0000
 11
-6.5000
 21
24.5000
 31
0.0000
  0
LINE
  8
20
 10
-8.7000
 20
40.2000
 30
0.0000
 11
8.7000
 21
40.2000
 31
0.0000
  0
LINE
  8
20
 10
8.7000
 20
40.2000
 30
0.0000
 11
8.7000
 21
25.8000
 31
0.0000
  0
LINE
  8
20
 10
8.7000
 20
25.8000
 30
0.0000
 11
-8.7000
 21
25.8000
 31
0.0000
  0
LINE
  8
20
 10
-8.7000
 20
25.8000
 30
0.0000
 11
-8.7000
 21
40.2000
 31
0.0000
  0
CIRCLE
  8
20
 10
11.0000
 20
18.0000
 30
0.0000
 40
2.0000
  0
CIRCLE
  8
20
 10
122.0000
 20
20.0000
 30
0.0000
 40
2.0000
  0
CIRCLE
  8
20
 10
122.0000
 20
72.0000
 30
0.0000
 40
2.0000
  0
CIRCLE
  8
20
 10
-122.0000
 20
20.0000
 30
0.0000
 40
2.0000
  0
CIRCLE
  8
20
 10
-122.0000
 20
72.0000
 30
0.0000
 40
2.0000
  0
CIRCLE
  8
20
 10
61.4000
 20
4.4000
 30
0.0000
 40
2.0000
  0
CIRCLE
  8
20
 10
-61.7000
 20
4.6000
 30
0.0000
 40
2.0000
  0
CIRCLE
  8
20
 10
20.5000
 20
72.5000
 30
0.0000
 40
2.0000
  0
CIRCLE
  8
20
 10
-20.5000
 20
72.5000
 30
0.0000
 40
2.0000
  0
CIRCLE
  8
20
 10
-11.0000
 20
18.0000
 30
0.0000
 40
2.0000
  0
LINE
  8
20
 10
12.0939
 20
59.9577
 30
0.0000
 11
14.0423
 21
46.0939
 31
0.0000
  0
LINE
  8
20
 10
14.0423
 20
46.0939
 30
0.0000
 11
27.9061
 21
48.0423
 31
0.0000
  0
LINE
  8
20
 10
27.9061
 20
48.0423
 30
0.0000
 11
25.9577
 21
61.9061
 31
0.0000
  0
LINE
  8
20
 10
25.9577
 20
61.9061
 30
0.0000
 11
12.0939
 21
59.9577
 31
0.0000
  0
LINE
  8
20
 10
-103.4448
 20
56.6390
 30
0.0000
 11
-101.4964
 21
70.5027
 31
0.0000
  0
LINE
  8
20
 10
-101.4964
 20
70.5027
 30
0.0000
 11
-115.3601
 21
72.4511
 31
0.0000
  0
LINE
  8
20
 10
-115.3601
 20
72.4511
 30
0.0000
 11
-117.3086
 21
58.5874
 31
0.0000
  0
LINE
  8
20
 10
-117.3086
 20
58.5874
 30
0.0000
 11
-103.4448
 21
56.6390
 31
0.0000
  0
LINE
  8
20
 10
-97.2570
 20
71.9266
 30
0.0000
 11
-99.2054
 21
58.0628
 31
0.0000
  0
LINE
  8
20
 10
-99.2054
 20
58.0628
 30
0.0000
 11
-85.3416
 21
56.1144
 31
0.0000
  0
LINE
  8
20
 10
-85.3416
 20
56.1144
 30
0.0000
 11
-83.3932
 21
69.9781
 31
0.0000
  0
LINE
  8
20
 10
-83.3932
 20
69.9781
 30
0.0000
 11
-97.2570
 21
71.9266
 31
0.0000
  0
LINE
  8
20
 10
-79.1538
 20
71.4020
 30
0.0000
 11
-81.1022
 21
57.5382
 31
0.0000
  0
LINE
  8
20
 10
-81.1022
 20
57.5382
 30
0.0000
 11
-67.2385
 21
55.5898
 31
0.0000
  0
LINE
  8
20
 10
-67.2385
 20
55.5898
 30
0.0000
 11
-65.2900
 21
69.4535
 31
0.0000
  0
LINE
  8
20
 10
-65.2900
 20
69.4535
 30
0.0000
 11
-79.1538
 21
71.4020
 31
0.0000
  0
LINE
  8
20
 10
-61.0506
 20
70.8774
 30
0.0000
 11
-62.9990
 21
57.0136
 31
0.0000
  0
LINE
  8
20
 10
-62.9990
 20
57.0136
 30
0.0000
 11
-49.1353
 21
55.0652
 31
0.0000
  0
LINE
  8
20
 10
-49.1353
 20
55.0652
 30
0.0000
 11
-47.1869
 21
68.9290
 31
0.0000
  0
LINE
  8
20
 10
-47.1869
 20
68.9290
 30
0.0000
 11
-61.0506
 21
70.8774
 31
0.0000
  0
LINE
  8
20
 10
-105.8107
 20
39.8044
 30
0.0000
 11
-103.8623
 21
53.6682
 31
0.0000
  0
LINE
  8
20
 10
-103.8623
 20
53.6682
 30
0.0000
 11
-117.7261
 21
55.6166
 31
0.0000
  0
LINE
  8
20
 10
-117.7261
 20
55.6166
 30
0.0000
 11
-119.6745
 21
41.7528
 31
0.0000
  0
LINE
  8
20
 10
-119.6745
 20
41.7528
 30
0.0000
 11
-105.8107
 21
39.8044
 31
0.0000
  0
LINE
  8
20
 10
-99.6229
 20
55.0920
 30
0.0000
 11
-101.5713
 21
41.2282
 31
0.0000
  0
LINE
  8
20
 10
-101.5713
 20
41.2282
 30
0.0000
 11
-87.7076
 21
39.2798
 31
0.0000
  0
LINE
  8
20
 10
-87.7076
 20
39.2798
 30
0.0000
 11
-85.7592
 21
53.1436
 31
0.0000
  0
LINE
  8
20
 10
-85.7592
 20
53.1436
 30
0.0000
 11
-99.6229
 21
55.0920
 31
0.0000
  0
LINE
  8
20
 10
-81.5197
 20
54.5674
 30
0.0000
 11
-83.4682
 21
40.7037
 31
0.0000
  0
LINE
  8
20
 10
-83.4682
 20
40.7037
 30
0.0000
 11
-69.6044
 21
38.7552
 31
0.0000
  0
LINE
  8
20
 10
-69.6044
 20
38.7552
 30
0.0000
 11
-67.6560
 21
52.6190
 31
0.0000
  0
LINE
  8
20
 10
-67.6560
 20
52.6190
 30
0.0000
 11
-81.5197
 21
54.5674
 31
0.0000
  0
LINE
  8
20
 10
-56.0000
 20
11.5000
 30
0.0000
 11
-56.0000
 21
-2.5000
 31
0.0000
  0
LINE
  8
20
 10
-56.0000
 20
-2.5000
 30
0.0000
 11
-42.0000
 21
-2.5000
 31
0.0000
  0
LINE
  8
20
 10
-42.0000
 20
-2.5000
 30
0.0000
 11
-42.0000
 21
11.5000
 31
0.0000
  0
LINE
  8
20
 10
-42.0000
 20
11.5000
 30
0.0000
 11
-56.0000
 21
11.5000
 31
0.0000
  0
LINE
  8
20
 10
-108.1767
 20
22.9698
 30
0.0000
 11
-106.2283
 21
36.8336
 31
0.0000
  0
LINE
  8
20
 10
-106.2283
 20
36.8336
 30
0.0000
 11
-120.0920
 21
38.7820
 31
0.0000
  0
LINE
  8
20
 10
-120.0920
 20
38.7820
 30
0.0000
 11
-122.0404
 21
24.9183
 31
0.0000
  0
LINE
  8
20
 10
-122.0404
 20
24.9183
 30
0.0000
 11
-108.1767
 21
22.9698
 31
0.0000
  0
LINE
  8
20
 10
-101.9888
 20
38.2574
 30
0.0000
 11
-103.9373
 21
24.3937
 31
0.0000
  0
LINE
  8
20
 10
-103.9373
 20
24.3937
 30
0.0000
 11
-90.0735
 21
22.4453
 31
0.0000
  0
LINE
  8
20
 10
-90.0735
 20
22.4453
 30
0.0000
 11
-88.1251
 21
36.3090
 31
0.0000
  0
LINE
  8
20
 10
-88.1251
 20
36.3090
 30
0.0000
 11
-101.9888
 21
38.2574
 31
0.0000
  0
LINE
  8
20
 10
-83.8857
 20
37.7329
 30
0.0000
 11
-85.8341
 21
23.8691
 31
0.0000
  0
LINE
  8
20
 10
-85.8341
 20
23.8691
 30
0.0000
 11
-71.9703
 21
21.9207
 31
0.0000
  0
LINE
  8
20
 10
-71.9703
 20
21.9207
 30
0.0000
 11
-70.0219
 21
35.7844
 31
0.0000
  0
LINE
  8
20
 10
-70.0219
 20
35.7844
 30
0.0000
 11
-83.8857
 21
37.7329
 31
0.0000
  0
LINE
  8
20
 10
-35.0577
 20
10.9061
 30
0.0000
 11
-37.0061
 21
-2.9577
 31
0.0000
  0
LINE
  8
20
 10
-37.0061
 20
-2.9577
 30
0.0000
 11
-23.1423
 21
-4.9061
 31
0.0000
  0
LINE
  8
20
 10
-23.1423
 20
-4.9061
 30
0.0000
 11
-21.1939
 21
8.9577
 31
0.0000
  0
LINE
  8
20
 10
-21.1939
 20
8.9577
 30
0.0000
 11
-35.0577
 21
10.9061
 31
0.0000
  0
LINE
  8
20
 10
34.3723
 20
30.7742
 30
0.0000
 11
36.3207
 21
16.9104
 31
0.0000
  0
LINE
  8
20
 10
36.3207
 20
16.9104
 30
0.0000
 11
50.1845
 21
18.8589
 31
0.0000
  0
LINE
  8
20
 10
50.1845
 20
18.8589
 30
0.0000
 11
48.2360
 21
32.7226
 31
0.0000
  0
LINE
  8
20
 10
48.2360
 20
32.7226
 30
0.0000
 11
34.3723
 21
30.7742
 31
0.0000
  0
LINE
  8
20
 10
-48.2360
 20
32.7226
 30
0.0000
 11
-50.1845
 21
18.8589
 31
0.0000
  0
LINE
  8
20
 10
-50.1845
 20
18.8589
 30
0.0000
 11
-36.3207
 21
16.9104
 31
0.0000
  0
LINE
  8
20
 10
-36.3207
 20
16.9104
 30
0.0000
 11
-34.3723
 21
30.7742
 31
0.0000
  0
LINE
  8
20
 10
-34.3723
 20
30.7742
 30
0.0000
 11
-48.2360
 21
32.7226
 31
0.0000
  0
LINE
  8
20
 10
-45.8701
 20
49.5572
 30
0.0000
 11
-47.8185
 21
35.6934
 31
0.0000
  0
LINE
  8
20
 10
-47.8185
 20
35.6934
 30
0.0000
 11
-33.9548
 21
33.7450
 31
0.0000
  0
LINE
  8
20
 10
-33.9548
 20
33.7450
 30
0.0000
 11
-32.0063
 21
47.6088
 31
0.0000
  0
LINE
  8
20
 10
-32.0063
 20
47.6088
 30
0.0000
 11
-45.8701
 21
49.5572
 31
0.0000
  0
LINE
  8
20
 10
21.1939
 20
8.9577
 30
0.0000
 11
23.1423
 21
-4.9061
 31
0.0000
  0
LINE
  8
20
 10
23.1423
 20
-4.9061
 30
0.0000
 11
37.0061
 21
-2.9577
 31
0.0000
  0
LINE
  8
20
 10
37.0061
 20
-2.9577
 30
0.0000
 11
35.0577
 21
10.9061
 31
0.0000
  0
LINE
  8
20
 10
35.0577
 20
10.9061
 30
0.0000
 11
21.1939
 21
8.9577
 31
0.0000
  0
LINE
  8
20
 10
32.0063
 20
47.6088
 30
0.0000
 11
33.9548
 21
33.7450
 31
0.0000
  0
LINE
  8
20
 10
33.9548
 20
33.7450
 30
0.0000
 11
47.8185
 21
35.6934
 31
0.0000
  0
LINE
  8
20
 10
47.8185
 20
35.6934
 30
0.0000
 11
45.8701
 21
49.5572
 31
0.0000
  0
LINE
  8
20
 10
45.8701
 20
49.5572
 30
0.0000
 11
32.0063
 21
47.6088
 31
0.0000
  0
LINE
  8
20
 10
29.6404
 20
64.4433
 30
0.0000
 11
31.5888
 21
50.5796
 31
0.0000
  0
LINE
  8
20
 10
31.5888
 20
50.5796
 30
0.0000
 11
45.4526
 21
52.5280
 31
0.0000
  0
LINE
  8
20
 10
45.4526
 20
52.5280
 30
0.0000
 11
43.5041
 21
66.3917
 31
0.0000
  0
LINE
  8
20
 10
43.5041
 20
66.3917
 30
0.0000
 11
29.6404
 21
64.4433
 31
0.0000
  0
LINE
  8
20
 10
42.0000
 20
11.5000
 30
0.0000
 11
42.0000
 21
-2.5000
 31
0.0000
  0
LINE
  8
20
 10
42.0000
 20
-2.5000
 30
0.0000
 11
56.0000
 21
-2.5000
 31
0.0000
  0
LINE
  8
20
 10
56.0000
 20
-2.5000
 30
0.0000
 11
56.0000
 21
11.5000
 31
0.0000
  0
LINE
  8
20
 10
56.0000
 20
11.5000
 30
0.0000
 11
42.0000
 21
11.5000
 31
0.0000
  0
LINE
  8
20
 10
-65.7825
 20
37.2083
 30
0.0000
 11
-67.7309
 21
23.3445
 31
0.0000
  0
LINE
  8
20
 10
-67.7309
 20
23.3445
 30
0.0000
 11
-53.8672
 21
21.3961
 31
0.0000
  0
LINE
  8
20
 10
-53.8672
 20
21.3961
 30
0.0000
 11
-51.9188
 21
35.2599
 31
0.0000
  0
LINE
  8
20
 10
-51.9188
 20
35.2599
 30
0.0000
 11
-65.7825
 21
37.2083
 31
0.0000
  0
LINE
  8
20
 10
-63.4166
 20
54.0428
 30
0.0000
 11
-65.3650
 21
40.1791
 31
0.0000
  0
LINE
  8
20
 10
-65.3650
 20
40.1791
 30
0.0000
 11
-51.5012
 21
38.2307
 31
0.0000
  0
LINE
  8
20
 10
-51.5012
 20
38.2307
 30
0.0000
 11
-49.5528
 21
52.0944
 31
0.0000
  0
LINE
  8
20
 10
-49.5528
 20
52.0944
 30
0.0000
 11
-63.4166
 21
54.0428
 31
0.0000
  0
LINE
  8
20
 10
-43.5041
 20
66.3917
 30
0.0000
 11
-45.4526
 21
52.5280
 31
0.0000
  0
LINE
  8
20
 10
-45.4526
 20
52.5280
 30
0.0000
 11
-31.5888
 21
50.5796
 31
0.0000
  0
LINE
  8
20
 10
-31.5888
 20
50.5796
 30
0.0000
 11
-29.6404
 21
64.4433
 31
0.0000
  0
LINE
  8
20
 10
-29.6404
 20
64.4433
 30
0.0000
 11
-43.5041
 21
66.3917
 31
0.0000
  0
LINE
  8
20
 10
47.1869
 20
68.9290
 30
0.0000
 11
49.1353
 21
55.0652
 31
0.0000
  0
LINE
  8
20
 10
49.1353
 20
55.0652
 30
0.0000
 11
62.9990
 21
57.0136
 31
0.0000
  0
LINE
  8
20
 10
62.9990
 20
57.0136
 30
0.0000
 11
61.0506
 21
70.8774
 31
0.0000
  0
LINE
  8
20
 10
61.0506
 20
70.8774
 30
0.0000
 11
47.1869
 21
68.9290
 31
0.0000
  0
LINE
  8
20
 10
49.5528
 20
52.0944
 30
0.0000
 11
51.5012
 21
38.2307
 31
0.0000
  0
LINE
  8
20
 10
51.5012
 20
38.2307
 30
0.0000
 11
65.3650
 21
40.1791
 31
0.0000
  0
LINE
  8
20
 10
65.3650
 20
40.1791
 30
0.0000
 11
63.4166
 21
54.0428
 31
0.0000
  0
LINE
  8
20
 10
63.4166
 20
54.0428
 30
0.0000
 11
49.5528
 21
52.0944
 31
0.0000
  0
LINE
  8
20
 10
51.9188
 20
35.2599
 30
0.0000
 11
53.8672
 21
21.3961
 31
0.0000
  0
LINE
  8
20
 10
53.8672
 20
21.3961
 30
0.0000
 11
67.7309
 21
23.3445
 31
0.0000
  0
LINE
  8
20
 10
67.7309
 20
23.3445
 30
0.0000
 11
65.7825
 21
37.2083
 31
0.0000
  0
LINE
  8
20
 10
65.7825
 20
37.2083
 30
0.0000
 11
51.9188
 21
35.2599
 31
0.0000
  0
LINE
  8
20
 10
-30.6895
 20
28.2370
 30
0.0000
 11
-32.6380
 21
14.3732
 31
0.0000
  0
LINE
  8
20
 10
-32.6380
 20
14.3732
 30
0.0000
 11
-18.7742
 21
12.4248
 31
0.0000
  0
LINE
  8
20
 10
-18.7742
 20
12.4248
 30
0.0000
 11
-16.8258
 21
26.2886
 31
0.0000
  0
LINE
  8
20
 10
-16.8258
 20
26.2886
 30
0.0000
 11
-30.6895
 21
28.2370
 31
0.0000
  0
LINE
  8
20
 10
-28.3236
 20
45.0715
 30
0.0000
 11
-30.2720
 21
31.2078
 31
0.0000
  0
LINE
  8
20
 10
-30.2720
 20
31.2078
 30
0.0000
 11
-16.4083
 21
29.2594
 31
0.0000
  0
LINE
  8
20
 10
-16.4083
 20
29.2594
 30
0.0000
 11
-14.4599
 21
43.1231
 31
0.0000
  0
LINE
  8
20
 10
-14.4599
 20
43.1231
 30
0.0000
 11
-28.3236
 21
45.0715
 31
0.0000
  0
LINE
  8
20
 10
-25.9577
 20
61.9061
 30
0.0000
 11
-27.9061
 21
48.0423
 31
0.0000
  0
LINE
  8
20
 10
-27.9061
 20
48.0423
 30
0.0000
 11
-14.0423
 21
46.0939
 31
0.0000
  0
LINE
  8
20
 10
-14.0423
 20
46.0939
 30
0.0000
 11
-12.0939
 21
59.9577
 31
0.0000
  0
LINE
  8
20
 10
-12.0939
 20
59.9577
 30
0.0000
 11
-25.9577
 21
61.9061
 31
0.0000
  0
LINE
  8
20
 10
16.8258
 20
26.2885
 30
0.0000
 11
18.7742
 21
12.4248
 31
0.0000
  0
LINE
  8
20
 10
18.7742
 20
12.4248
 30
0.0000
 11
32.6380
 21
14.3732
 31
0.0000
  0
LINE
  8
20
 10
32.6380
 20
14.3732
 30
0.0000
 11
30.6895
 21
28.2370
 31
0.0000
  0
LINE
  8
20
 10
30.6895
 20
28.2370
 30
0.0000
 11
16.8258
 21
26.2885
 31
0.0000
  0
LINE
  8
20
 10
14.4599
 20
43.1231
 30
0.0000
 11
16.4083
 21
29.2594
 31
0.0000
  0
LINE
  8
20
 10
16.4083
 20
29.2594
 30
0.0000
 11
30.2720
 21
31.2078
 31
0.0000
  0
LINE
  8
20
 10
30.2720
 20
31.2078
 30
0.0000
 11
28.3236
 21
45.0715
 31
0.0000
  0
LINE
  8
20
 10
28.3236
 20
45.0715
 30
0.0000
 11
14.4599
 21
43.1231
 31
0.0000
  0
LINE
  8
20
 10
106.2283
 20
36.8336
 30
0.0000
 11
108.1767
 21
22.9698
 31
0.0000
  0
LINE
  8
20
 10
108.1767
 20
22.9698
 30
0.0000
 11
122.0404
 21
24.9183
 31
0.0000
  0
LINE
  8
20
 10
122.0404
 20
24.9183
 30
0.0000
 11
120.0920
 21
38.7820
 31
0.0000
  0
LINE
  8
20
 10
120.0920
 20
38.7820
 30
0.0000
 11
106.2283
 21
36.8336
 31
0.0000
  0
LINE
  8
20
 10
65.2900
 20
69.4535
 30
0.0000
 11
67.2385
 21
55.5898
 31
0.0000
  0
LINE
  8
20
 10
67.2385
 20
55.5898
 30
0.0000
 11
81.1022
 21
57.5382
 31
0.0000
  0
LINE
  8
20
 10
81.1022
 20
57.5382
 30
0.0000
 11
79.1538
 21
71.4020
 31
0.0000
  0
LINE
  8
20
 10
79.1538
 20
71.4020
 30
0.0000
 11
65.2900
 21
69.4535
 31
0.0000
  0
LINE
  8
20
 10
67.6560
 20
52.6190
 30
0.0000
 11
69.6044
 21
38.7552
 31
0.0000
  0
LINE
  8
20
 10
69.6044
 20
38.7552
 30
0.0000
 11
83.4682
 21
40.7037
 31
0.0000
  0
LINE
  8
20
 10
83.4682
 20
40.7037
 30
0.0000
 11
81.5197
 21
54.5674
 31
0.0000
  0
LINE
  8
20
 10
81.5197
 20
54.5674
 30
0.0000
 11
67.6560
 21
52.6190
 31
0.0000
  0
LINE
  8
20
 10
70.0219
 20
35.7844
 30
0.0000
 11
71.9704
 21
21.9207
 31
0.0000
  0
LINE
  8
20
 10
71.9704
 20
21.9207
 30
0.0000
 11
85.8341
 21
23.8691
 31
0.0000
  0
LINE
  8
20
 10
85.8341
 20
23.8691
 30
0.0000
 11
83.8857
 21
37.7329
 31
0.0000
  0
LINE
  8
20
 10
83.8857
 20
37.7329
 30
0.0000
 11
70.0219
 21
35.7844
 31
0.0000
  0
LINE
  8
20
 10
103.8623
 20
53.6681
 30
0.0000
 11
105.8107
 21
39.8044
 31
0.0000
  0
LINE
  8
20
 10
105.8107
 20
39.8044
 30
0.0000
 11
119.6745
 21
41.7528
 31
0.0000
  0
LINE
  8
20
 10
119.6745
 20
41.7528
 30
0.0000
 11
117.7261
 21
55.6166
 31
0.0000
  0
LINE
  8
20
 10
117.7261
 20
55.6166
 30
0.0000
 11
103.8623
 21
53.6681
 31
0.0000
  0
LINE
  8
20
 10
83.3932
 20
69.9781
 30
0.0000
 11
85.3416
 21
56.1144
 31
0.0000
  0
LINE
  8
20
 10
85.3416
 20
56.1144
 30
0.0000
 11
99.2054
 21
58.0628
 31
0.0000
  0
LINE
  8
20
 10
99.2054
 20
58.0628
 30
0.0000
 11
97.2570
 21
71.9266
 31
0.0000
  0
LINE
  8
20
 10
97.2570
 20
71.9266
 30
0.0000
 11
83.3932
 21
69.9781
 31
0.0000
  0
LINE
  8
20
 10
85.7592
 20
53.1436
 30
0.0000
 11
87.7076
 21
39.2798
 31
0.0000
  0
LINE
  8
20
 10
87.7076
 20
39.2798
 30
0.0000
 11
101.5713
 21
41.2282
 31
0.0000
  0
LINE
  8
20
 10
101.5713
 20
41.2282
 30
0.0000
 11
99.6229
 21
55.0920
 31
0.0000
  0
LINE
  8
20
 10
99.6229
 20
55.0920
 30
0.0000
 11
85.7592
 21
53.1436
 31
0.0000
  0
LINE
  8
20
 10
88.1251
 20
36.3090
 30
0.0000
 11
90.0735
 21
22.4453
 31
0.0000
  0
LINE
  8
20
 10
90.0735
 20
22.4453
 30
0.0000
 11
103.9373
 21
24.3937
 31
0.0000
  0
LINE
  8
20
 10
103.9373
 20
24.3937
 30
0.0000
 11
101.9888
 21
38.2574
 31
0.0000
  0
LINE
  8
20
 10
101.9888
 20
38.2574
 30
0.0000
 11
88.1251
 21
36.3090
 31
0.0000
  0
LINE
  8
20
 10
101.4964
 20
70.5027
 30
0.0000
 11
103.4448
 21
56.6390
 31
0.0000
  0
LINE
  8
20
 10
103.4448
 20
56.6390
 30
0.0000
 11
117.3086
 21
58.5874
 31
0.0000
  0
LINE
  8
20
 10
117.3086
 20
58.5874
 30
0.0000
 11
115.3601
 21
72.4511
 31
0.0000
  0
LINE
  8
20
 10
115.3601
 20
72.4511
 30
0.0000
 11
101.4964
 21
70.5027
 31
0.0000
  0
ENDSEC
  0
EOF
